<svg width="240" height="336" xmlns="http://www.w3.org/2000/svg" xmlns:xlink="http://www.w3.org/1999/xlink" face="JD" class="card" preserveAspectRatio="none">
 <defs>
  <rect y="-130.4" x="-82.4" height="260.8" width="164.8" id="DJX"/>
 </defs>
 <symbol preserveAspectRatio="xMinYMid" viewBox="-500 -500 1000 1000" id="DJ">
  <path id="svg_1" fill="none" stroke-miterlimit="1.5" stroke-linecap="square" stroke-width="80" d="m50,-460l200,0m-100,0l0,710a100,100 0 0 1 -400,0l0,-30"/>
 </symbol>
 <symbol preserveAspectRatio="xMinYMid" viewBox="-600 -600 1200 1200" id="D">
  <path id="svg_2" d="m-400,0c50,0 400,-450 400,-500c0,50 350,500 400,500c-50,0 -400,450 -400,500c0,-50 -350,-500 -400,-500z"/>
 </symbol>
 <symbol viewBox="0 0 1300 2000" preserveAspectRatio="none" id="DJ1">
  <path id="svg_3" d="m0,0l0,602.5a52.5,17.5 0 0 1 52.5,-17.5a52.5,17.5 0 0 1 47.5,10.0918l0,-197.69922c108.28637,-41.15706 147.22219,-107.87581 165,-182.39258c-50.47665,41.16791 -105.79739,67.41009 -165,81.69141l0,-196.69141l-100,-100zm0,602.5l0,32.5c0,-7.26326 13.90743,-13.49298 33.71094,-16.14062l0.30078,-0.00196a52.5,17.5 0 0 1 -34.01172,-16.35742zm0,32.5l0,35a52.5,17.5 0 0 1 52.5,-17.5a52.5,17.5 0 0 1 47.5,10.0918l0,-17.53516c-9.9525,4.50035 -26.39125,7.44336 -45,7.44336c-30.37566,0 -55,-7.83502 -55,-17.5zm0,35l0,1040l100,-100l0,-902.18555c-7.79259,5.74124 -23.89164,9.68555 -42.5,9.68555c-26.23353,0 -47.5,-7.83502 -47.5,-17.5c0,-5.86678 7.83695,-11.05926 19.86328,-14.23438a52.5,17.5 0 0 1 -29.86328,-15.76562zm872.92188,-504.63086c5.55257,19.87457 17.07812,62.03987 17.07812,69.63086c0,10 -10,40 -10,55c0,15 -10,70 -20,95c-10,25 -44.99961,90.00021 -50.28516,100.82617c2.871,18.59214 22.05956,32.81595 42.18555,38.03516l-1.48828,-0.03321c-33.86112,23.76581 -71.46691,38.49445 -112.36328,44.62891c-68.31383,10.24707 -147.23524,-4.21624 -232.49805,-47.14062l-0.65625,0.29492c11.60466,-7.36262 23.08961,-21.33691 32.70313,-45.24414c17.1983,-42.76937 -22.59766,-146.36719 57.40234,-301.36719c-67.97796,-0.001 -133.5977,4.19548 -191.2168,22.625c-60.88913,128.08024 -57.83635,214.76876 -77.75195,256.51367c3.96875,-39.13837 -86.03125,-64.13867 -86.03125,10.86133c0,20.57808 15.55526,49.79775 43.0293,51.08984c65.14888,21.07077 129.94852,36.62181 202.68359,12.24024c2.37743,-0.2151 4.79446,-0.65535 7.23242,-1.33399l-10.6289,4.78711c93.45298,50.01793 181.50418,68.03239 258.69921,56.45313c52.21322,-7.83198 99.70025,-29.07774 141.03321,-63.69531l-1.72852,-0.03907c9.59362,-2.60702 17.17768,-8.65363 20.14844,-18.9414c24.05022,-28.31987 34.1997,-44.00268 46.78125,-61.89649c2.82625,-6.00578 3.97324,-13.87818 2.75,-23.66406c-5,-40 -49.99945,-19.9998 -49.88086,-4.72656c-3.37335,-10.43234 -5.11978,-21.98096 -4.97461,-35.37696c19.35814,7.72559 44.85547,-5.75359 44.85547,-29.89648c0,-40 -40,-5 -40,-5c0,0 16.80393,-123.50983 -17.26172,-178.78125l-9.8164,-0.84961zm88.27929,300.82422c-55.63265,80.51744 -130.65147,128.83551 -217.21679,141.82031c-88.04896,13.20734 -187.44387,-9.83115 -290.95704,-69.64453l-8.02734,1.63086l27.33008,31.72461c96.1261,49.65099 189.63001,68.81702 274.62109,56.06836c70.77778,-10.61666 134.6094,-43.83375 186.82617,-96.9375l-2.90039,3.17578l17.16407,274.62695l17.58593,-58.61328c-4.42751,-70.84011 -9.68038,-154.88625 -14.85351,-237.65625c9.40756,-10.91156 18.38141,-22.524 26.88281,-34.82812l3.63281,-5.25782l-20.08789,-6.10937zm72.14063,19.82617c26.2591,105.35479 79.3583,198.01972 165.4805,268.01172l1.1054,-38.52539c-66.3646,-59.90426 -109.3861,-135.17342 -133.3672,-221.1543l-33.2187,-8.33203zm-668.07813,55.54102l151.07031,170.17383c-0.86201,-0.05931 -1.72222,-0.10314 -2.57812,-0.11524c-1.29732,-0.0183 -2.58589,0.0172 -3.86328,0.10547c-10.21915,0.70597 -19.68751,4.78712 -26.58789,11.6875c-11.54426,11.54425 -15.19004,30.27838 -8.34961,47.68555c-5.92821,-1.85933 -11.94503,-2.54172 -17.72266,-2.14258c-10.21914,0.70597 -19.68946,4.78712 -26.58984,11.6875c-9.67033,9.67033 -13.79327,24.38609 -10.85938,39.14062c-4.22585,-0.84038 -8.44886,-1.11149 -12.55078,-0.82812c-10.21914,0.70597 -19.68946,4.78712 -26.58984,11.6875c-9.61698,9.61698 -13.74842,24.22394 -10.9082,38.89648c-0.28337,-0.0598 -0.56613,-0.13305 -0.84961,-0.1875c-0.98,-0.2026 -1.97781,-0.30663 -2.97852,-0.31054c-0.86967,-0.003 -1.7231,0.0672 -2.55469,0.20703l0.38867,2.12695c-21.61657,-108.04197 -70.88903,-218.34213 -155.99023,-326.47852l-63.5957,41.58399c3.82541,14.64958 9.89044,37.27873 10.8457,53.51953c0.35155,5.97684 -0.33635,13.3761 -1.41211,21.78906c156.379,228.19892 134.2947,446.70094 38.82422,633.13674c27.04234,33.2885 49.71315,70.2902 68.01953,110.166c43.96344,-73.4827 78.35645,-154.4443 98.05078,-240.0977l-0.30859,1.6231l295.53125,-300.14454l121.16015,136.47854l21.03516,-21.36331l-387.89453,-436.9375l-42.74219,-3.08984zm-265.26367,68.34375a52.5,17.5 0 0 1 -26.82617,8.65429l0.66211,-0.00586c10.6477,1.23492 19.75055,3.48913 26.16406,6.38868l0,-15.03711zm0,67.5a52.5,17.5 0 0 1 -19.86523,7.44336l1.05664,-0.01954c8.06472,1.71304 14.62865,4.27541 18.80859,7.35352l0,-14.77734zm738.64062,20.33203l-25.58789,8.22461c8.4495,25.61876 22.4912,63.80057 36.94727,84.03906c10.84303,15.18024 28.26925,35.06396 44.5293,52.71484c0,0 23.03621,-12.07085 16.19922,-19.65625c-13.48773,-14.96417 -26.82695,-30.5964 -35.72852,-43.05859c-14.12561,-19.77585 -27.85587,-56.68488 -36.35938,-82.26367zm-51.79101,14.54297l-26.7168,4.64843c7.83405,24.73461 23.58779,70.28111 39.86719,93.07227c14.38872,20.1442 40.37142,48.56889 59.83594,69.07031c7.13332,7.51333 16.88281,-18.61328 16.88281,-18.61328c-18.09072,-19.34431 -39.25467,-43.00732 -51.71875,-60.45703c-15.16647,-21.23306 -29.87536,-62.21572 -38.15039,-87.7207z" fill="#FC4"/>
 </symbol>
 <symbol viewBox="0 0 1300 2000" preserveAspectRatio="none" id="DJ2">
  <path id="svg_4" d="m199.52148,0l157.66407,165.58203l25.47265,-4.90234c149.95785,-27.99631 296.7759,-37.13788 441.39258,-36.50977c20.65953,0.0897 41.27525,0.37782 61.84766,0.83985l34.47461,1.57031l120.57615,-126.58008l-90.37108,0l-73.62695,108.70117l-3.26758,-0.0723c-17.43992,-0.38354 -35.10109,-0.6067 -52.80078,-0.6836c-14.19091,-0.0617 -28.39696,-0.0289 -43.67773,0.15235l-7.91602,0.0937l28.97852,-108.19132l-102.04492,0l-7.77344,110.40039l-5.35938,0.2207c-28.90564,1.19451 -58.05762,2.96537 -87.60546,5.35938l-5.51368,0.44726l-19.01562,-116.42773l-123.05664,0l45.31445,126.51953l-7.39062,0.95703c-26.19409,3.39116 -52.95007,7.40266 -79.91016,12.12305l-3.54297,0.62109l-109.73633,-140.2207l-93.11133,0zm108.34961,0l99.54297,127.19727c23.43187,-4.05137 46.64908,-7.54037 69.50196,-10.58789l-41.76563,-116.60938l-127.2793,0zm275.24414,0l16.92383,103.62695c25.99132,-2.04096 51.6931,-3.60588 77.18946,-4.7207l6.96289,-98.90625l-101.07618,0zm227.57618,0l-25.73047,96.07031c12.29871,-0.10653 24.2951,-0.17576 35.97461,-0.125c16.66399,0.07238 33.2704,0.30198 49.72461,0.64453l65.42578,-96.58984l-125.39453,0zm-810.69141,50l0,70l80,80l0,-70l-80,-80zm0,150l0,109.85352c27.32505,-0.91104 54.01363,-3.78058 80,-8.81641l0,-21.03711l-80,-80zm225.89844,66.74805c-69.01169,41.27798 -145.38242,60.50498 -225.89844,63.10547l0,73.93554c87.94157,-16.24665 143.49015,-43.18838 179.62695,-75.49414c20.79357,-18.58912 35.41481,-39.20115 46.27149,-61.54687zm-145.89844,137.68945c-23.57635,7.69101 -50.1297,14.28496 -80,19.65625l0,10.90625l80,80l0,-110.5625zm182.08398,104.17188l-54.92968,36.68359c65.5852,82.86393 109.88762,167.06245 137.03125,251.62305l130.92187,-131.62305l-109.84375,-123.73242c-34.415,-10.87756 -70.71377,-12.66012 -103.17969,-32.95117zm863.33402,2.24023l-42.3438,33.26953l9.8067,23.38086l66.5136,0l-40.5117,50.64062l14.3594,21.42383l61.3808,-10.23047l-17.6699,63.61329l12.2031,12.11523l10.9825,-39.53906l-0.5957,-43.38672l-6.0684,-7.82031l-60.3711,10.0625l36.7149,-45.89453l-13.0782,-25.98438l-60.0566,0l46.6523,-36.65625l-17.9179,-4.99414zm-1125.418,4.15039l0,87.5a52.5,17.5 0 0 1 52.5,-17.5a52.5,17.5 0 0 1 18.66406,1.16406l-71.16406,-71.16406zm0,87.5l0,32.5c0,-7.26326 13.90743,-13.49298 33.71094,-16.14062l0.30078,-0.002a52.5,17.5 0 0 1 -34.01172,-16.35738zm0,32.5l0,35a52.5,17.5 0 0 1 52.5,-17.5a52.5,17.5 0 0 1 27.5,2.61914l0,-4.54492c-7.50667,1.22249 -15.98796,1.92578 -25,1.92578c-30.37566,0 -55,-7.83502 -55,-17.5zm0,35l0,80l80,80l0,-114.58594c-6.69802,1.33005 -14.35758,2.08594 -22.5,2.08594c-26.23353,0 -47.5,-7.83502 -47.5,-17.5c0,-5.86678 7.83695,-11.05926 19.86328,-14.23438a52.5,17.5 0 0 1 -29.86328,-15.76562zm170.15234,-103a3.0003,3.0003 0 1 0 0,6l8.42774,0l0.38086,0a3.0003,3.0003 0 1 0 0,-6l-0.38086,0l-8.42774,0zm-97.43164,19.35352a52.5,17.5 0 0 1 7.2793,1.26562l0,-1.26562l-7.2793,0zm74.27735,0.64648a3.0003,3.0003 0 1 0 0,6l46.9375,0l0.35547,0a3.0003,3.0003 0 1 0 0,-6l-0.35547,0l-46.9375,0zm15.47265,20a3.0003,3.0003 0 1 0 0,6l45.8418,0l0.32422,0a3.0003,3.0003 0 1 0 0,-6l-0.32422,0l-45.8418,0zm-82.4707,10.39258a52.5,17.5 0 0 1 -6.86328,1.16601l0.69922,-0.006c2.12546,0.24652 4.17029,0.54449 6.16406,0.86915l0,-2.02916zm96.95508,9.60742a3.0003,3.0003 0 1 0 0,6l44.98242,0l0.29688,0a3.0003,3.0003 0 1 0 0,-6l-0.29688,0l-44.98242,0zm13.67187,20a3.0003,3.0003 0 1 0 0,6l44.19922,0l0.26953,0a3.0003,3.0003 0 1 0 0,-6l-0.26953,0l-44.19922,0zm12.8711,20a3.0003,3.0003 0 1 0 0,6l43.38086,0l0.25,0a3.0003,3.0003 0 1 0 0,-6l-0.25,0l-43.38086,0zm12.07812,20a3.0003,3.0003 0 1 0 0,6l42.42188,0a3.0003,3.0003 0 1 0 0,-6l-42.42188,0zm597.47656,18.96094l-26.20312,6.31836c8.27503,25.50498 22.98392,66.48764 38.15039,87.7207c12.70132,17.78185 34.43655,42.01754 52.74805,61.55859l16.78125,-18.84375c-16.26005,-17.65088 -33.68627,-37.5346 -44.5293,-52.71484c-14.45607,-20.23849 -28.49777,-58.4203 -36.94727,-84.03906zm-586.20703,1.03906a3.0003,3.0003 0 1 0 0,6l41.58203,0a3.0003,3.0003 0 1 0 0,-6l-41.58203,0zm10.30664,20a3.0003,3.0003 0 1 0 0,6l41.02149,0a3.0003,3.0003 0 1 0 0,-6l-41.02149,0zm9.55664,20a3.0003,3.0003 0 1 0 0,6l40.4668,0a3.0003,3.0003 0 1 0 0,-6l-40.4668,0zm8.81446,20a3.0003,3.0003 0 1 0 0,6l39.75976,0l0.15625,0a3.0003,3.0003 0 1 0 0,-6l-0.15625,0l-39.75976,0zm8.08203,20a3.0003,3.0003 0 1 0 0,6l39.14062,0a3.0003,3.0003 0 1 0 0,-6l-39.14062,0zm7.35351,20a3.0003,3.0003 0 1 0 0,6l38.60938,0a3.0003,3.0003 0 1 0 0,-6l-38.60938,0zm6.51368,20a3.0003,3.0003 0 1 0 0,6l38.26367,0a3.0003,3.0003 0 1 0 0,-6l-38.26367,0zm-277.47266,3l0,235l80,80l0,-235l-80,-80zm283.21289,17a3.0003,3.0003 0 1 0 0,6l37.80859,0a3.0003,3.0003 0 1 0 0,-6l-37.80859,0zm5.04297,20a3.0003,3.0003 0 1 0 0,6l37.43945,0a3.0003,3.0003 0 1 0 0,-6l-37.43945,0zm4.35352,20a3.0003,3.0003 0 1 0 0,6l37.15234,0a3.0003,3.0003 0 1 0 0,-6l-37.15234,0zm3.66796,20a3.0003,3.0003 0 1 0 0,6l36.94532,0a3.0003,3.0003 0 1 0 0,-6l-36.94532,0zm2.98633,20a3.0003,3.0003 0 1 0 0,6l36.62695,0a3.0003,3.0003 0 1 0 0,-6l-36.62695,0zm2.19727,20a3.0003,3.0003 0 1 0 0,6l36.45312,0a3.0003,3.0003 0 1 0 0,-6l-36.45312,0zm1.49023,20a3.0003,3.0003 0 1 0 0,6l36.39844,0a3.0003,3.0003 0 1 0 0,-6l-36.39844,0zm0.83008,20a3.0003,3.0003 0 1 0 0,6l36.21875,0a3.0003,3.0003 0 1 0 0,-6l-36.21875,0zm0.17383,20a3.0003,3.0003 0 1 0 0,6l36.04492,0a3.0003,3.0003 0 1 0 0,-6l-36.04492,0zm-0.48438,20a3.0003,3.0003 0 1 0 0,6l36.41211,0a3.0003,3.0003 0 1 0 0,-6l-36.41211,0zm-1.13672,20a3.0003,3.0003 0 1 0 0,6l36.44727,0a3.0003,3.0003 0 1 0 0,-6l-36.44727,0zm-1.7871,20a3.0003,3.0003 0 1 0 0,6l36.55468,0a3.0003,3.0003 0 1 0 0,-6l-36.55468,0zm-2.51954,20a3.0003,3.0003 0 1 0 0,6l36.81641,0a3.0003,3.0003 0 1 0 0,-6l-36.81641,0zm-3.18359,20a3.0003,3.0003 0 1 0 0,6l37.11523,0a3.0003,3.0003 0 1 0 0,-6l-37.11523,0zm-3.82617,20a3.0003,3.0003 0 1 0 0,6l37.35351,0a3.0003,3.0003 0 1 0 0,-6l-37.35351,0zm-291.01758,18l0,235l80,80l0,-235l-80,-80zm286.55078,2a3.0003,3.0003 0 1 0 0,6l37.65625,0a3.0003,3.0003 0 1 0 0,-6l-37.65625,0zm-5.10937,20a3.0003,3.0003 0 1 0 0,6l38.02343,0a3.0003,3.0003 0 1 0 0,-6l-38.02343,0zm-5.75,20a3.0003,3.0003 0 1 0 0,6l38.44531,0a3.0003,3.0003 0 1 0 0,-6l-38.44531,0zm-6.39649,20a3.0003,3.0003 0 1 0 0,6l38.91406,0a3.0003,3.0003 0 1 0 0,-6l-38.91406,0zm-7.04101,20a3.0003,3.0003 0 1 0 0,6l39.39648,0a3.0003,3.0003 0 1 0 0,-6l-39.39648,0zm-7.69141,20a3.0003,3.0003 0 1 0 0,6l39.84375,0a3.0003,3.0003 0 1 0 0,-6l-39.84375,0zm-8.3418,20a3.0003,3.0003 0 1 0 0,6l40.33985,0a3.0003,3.0003 0 0 0 0.002,0a3.0003,3.0003 0 0 0 0.006,0l0.0391,0a3.0003,3.0003 0 0 0 0.16211,-5.9961a3.0003,3.0003 0 0 0 -0.17773,0l-0.0312,0l-40.34013,-0.0039zm-9,20a3.0003,3.0003 0 1 0 0,6l40.88282,0a3.0003,3.0003 0 1 0 0,-6l-40.88282,0zm-9.66015,20a3.0003,3.0003 0 1 0 0,6l41.46289,0a3.0003,3.0003 0 1 0 0,-6l-41.46289,0zm-9.125,20a3.0003,3.0003 0 1 0 0,6l40.87695,0a3.0003,3.0003 0 1 0 0,-6l-40.87695,0zm12.81836,20a3.0003,3.0003 0 1 0 0,6l17.70312,0l0.125,0a3.0003,3.0003 0 1 0 0,-6l-0.125,0l-17.70312,0zm-231.25391,112.9551l0,200.0449l80,-80l0,-40.7676l-80,-79.2773z" />
 </symbol>
 <symbol viewBox="0 0 1300 2000" preserveAspectRatio="none" id="DJ3">
  <path id="svg_5" d="m509,758c9,0 28.31504,-1.23652 32,4c19,27 34.04704,54.14117 62,66c5.8946,2.50074 10.25821,21.90098 2,26c-38.41841,19.06926 -54.16748,-44.09457 -64,-71c-7.29748,-19.96864 -27.05442,-16.3424 -31,-17c-6,-1 -3.68742,-8 -1,-8zm-52.66142,57.23111c9,0 28.31504,-1.23652 32,4c19,27 34.04704,54.14117 62,66c5.8946,2.50074 10.25821,21.90098 2,26c-38.41841,19.06926 -54.16748,-44.09457 -64,-71c-7.29748,-19.96864 -27.05442,-16.3424 -31,-17c-6,-1 -3.68742,-8 -1,-8zm-50,50c9,0 28.31504,-1.23652 32,4c19,27 34.04704,54.14117 62,66c5.8946,2.50074 10.25821,21.90098 2,26c-38.41841,19.06926 -54.16748,-44.09457 -64,-71c-7.29748,-19.96864 -27.05442,-16.3424 -31,-17c-6,-1 -3.68742,-8 -1,-8zm-35.09045,49.9176c7.57939,0.18799 14.95627,1.04959 17.09045,4.08236c19.00001,27 34.04704,54.14117 62,66c5.8946,2.50074 10.25821,21.90103 2,26.00003c-38.41841,19.0693 -54.16749,-44.0946 -64,-71.00003c-3.54885,-9.71099 -10.04436,-13.8418 -16.23502,-15.59885m4.18594,94.43338c7.01586,6.6818 14.83067,12.2547 24.04908,16.1655c5.89459,2.5007 10.2582,21.901 2,26c-10.87943,5.4001 -19.94095,4.2057 -27.565,-0.8923m322.476,-780.3388a13.62481,20 0 0 1 -13.6248,20a13.62481,20 0 0 1 -13.62481,-20a13.62481,20 0 0 1 13.62481,-20a13.62481,20 0 0 1 13.6248,20zm162.75043,4.5064a12.49998,20.29178 0 0 1 -12.49999,20.29178a12.49998,20.29178 0 0 1 -12.49998,-20.29178a12.49998,20.29178 0 0 1 12.49998,-20.29178a12.49998,20.29178 0 0 1 12.49999,20.29178zm179.28779,309.78935c-17.0093,-37.3226 -29.8743,-76.64471 -38.9183,-117.43495l-19.08023,-4.55815l-3.63322,5.2579c-8.474,12.26447 -17.41404,23.84632 -26.83922,34.71371c5.12511,82.79996 10.38084,166.89161 15.04414,237.70574c19.44237,-54.63238 44.35443,-106.74317 73.42683,-155.68425zm105.3118,-78.3251l55.1936,14.90547m-55.1936,-14.90547c3.5097,27.01837 30.4012,77.53188 54.9427,106.16652l0.2509,-91.26105m-1062.22339,175.12407c-4.34778,7.56853 -8.85478,12.68128 -13.24183,14.10728c-15.03696,4.88772 -24.32798,-10.13123 -24.32798,-10.13123l0.0779,496.90446c23.97722,17.9539 45.70919,37.0813 66.05805,57.431c82.1026,-167.6265 100.65468,-356.41363 -28.56615,-558.31151l0.00001,0zm-37.56981,903.99981l-110,110m364.52828,-887.17878l141.61799,-143.82924l20.83045,22.78271c-1.07786,-0.0888 -2.15214,-0.14044 -3.22086,-0.15555c-1.29732,-0.0183 -2.58589,0.0172 -3.86328,0.10547c-10.21915,0.70597 -19.68751,4.78712 -26.58789,11.6875c-11.54426,11.54425 -15.19004,30.27838 -8.34961,47.68555c-5.92821,-1.85933 -11.94503,-2.54172 -17.72266,-2.14258c-10.21914,0.70597 -19.68946,4.78712 -26.58984,11.6875c-9.67033,9.67033 -13.79327,24.38609 -10.85938,39.14062c-4.22585,-0.84038 -8.44886,-1.11149 -12.55078,-0.82812c-10.21914,0.70597 -19.68946,4.78712 -26.58984,11.6875c-9.61698,9.61698 -13.7484,24.22394 -10.9082,38.89648c-0.28336,-0.0598 -0.56613,-0.13305 -0.84961,-0.1875c-0.98,-0.2026 -1.97781,-0.30663 -2.97852,-0.31054c-0.86967,-0.003 -1.72346,0.068 -2.55505,0.20782l-8.82292,-36.42762zm745.47172,-312.82122a10,10 0 0 1 -10,10a10,10 0 0 1 -10,-10a10,10 0 0 1 10,-10a10,10 0 0 1 10,10zm30,65a10,10 0 0 1 -10,10a10,10 0 0 1 -10,-10a10,10 0 0 1 10,-10a10,10 0 0 1 10,10zm45,70a10,10 0 0 1 -10,10a10,10 0 0 1 -10,-10a10,10 0 0 1 10,-10a10,10 0 0 1 10,10z" fill="#44F"/>
 </symbol>
 <symbol viewBox="0 0 1300 2000" preserveAspectRatio="none" id="DJ4">
  <path id="svg_6" d="m130,1057c-4.05697,-0.057 -4.05697,6.0574 0,6l60,0c4.05697,0.057 4.05697,-6.0574 0,-6l-60,0zm-10,25c-4.05697,-0.057 -4.05697,6.0574 0,6l85,0c4.05697,0.057 4.05697,-6.0574 0,-6l-85,0zm-20,27l0,12l117.99556,0l2.32219,-12l-120.31775,0zm0,25l0,12l112.19009,0l2.61246,-12l-114.80255,0zm0,25l0,12l104.3527,0l3.77356,-12l-108.12626,0zm0,25l0,12l96.80558,0l3.48329,-12l-100.28887,0zm17.56086,37l68.50459,0l4.93466,-12l-87.37239,0l13.93314,12zm29.89819,25l27.86628,0l4.93465,-12l-46.4438,0l13.64287,12zm738.43939,-1120.99023c-20.57241,-0.46203 -41.18813,-0.75012 -61.84766,-0.83985c-144.61668,-0.62811 -291.43473,8.51346 -441.39258,36.50977l-25.89284,4.46175l33.23464,34.85856c167.85386,-31.33739 332.223,-38.65572 495,-35l35.36136,-38.40799l-34.46292,-1.58224zm48.58592,474.12195c-96.95208,80.75964 -235.54034,102.4949 -377.10013,68.72074l43.71501,48.93565c123.68744,18.04212 244.25957,-3.94588 336.97192,-69.98917l-3.5868,-47.66722zm-117.55049,361.09265l-372.5096,-419.60853l-36.41827,4.03459l387.89388,436.93795l21.03399,-21.36401zm-320.7876,-271.23239l-141.61799,143.82924l-10.06909,-34.84832l130.6441,-132.68402l21.04298,23.7031zm381.57183,208.62877c-4.42741,-4.52222 -10.57209,-10.85403 -17.54891,-18.39031l51.2367,-55.32553c6.54934,7.15907 13.21499,14.3439 19.38944,20.89501m-737.80863,450.73348c94.89675,-187.0442 116.97981,-405.54572 -39.01474,-633.20208c-4.97928,15.60172 -9.5041,32.46041 -16.21939,43.26065c129.03807,202.3061 110.48599,391.09323 29.07803,558.57083l26.1561,31.3706z" fill="black"/>
 </symbol>
 <symbol viewBox="0 0 1300 2000" preserveAspectRatio="none" id="DJ5">
  <path id="svg_7" d="m100,709.95247l0,900.04753l-100,100m100,-1031.8891l0,13.91136m0,-46.98951l0,17.31193m0,-52.55406l0,14.83879m0,-227.21901l0,197.23229m-100,-594.64269l100,100l0,196.63027m0.15582,910.64513c107.99697,79.3471 171.73737,190.7171 199.48574,315.9144m-92.34178,-977.92848c238.0763,301.58268 196.38221,620.39508 53.37493,860.34498m97.49906,-238.9892l295.53063,-300.14512m-288.44074,-324.91062l409.60135,461.39004m-124.86501,-132.71506l0,134.76366m-15,-119.53125l0,235.33595m-14.99999,-220.10156l-0.00001,203.20506m-15.00002,-187.97073l0.00001,171.07423m-14.99999,-155.83982l0,138.94332m-15,-123.70895l0,106.81255m-15,-91.57818l-0.00002,74.68158m-14.99996,-59.44717l-0.00001,42.55077m-15.00001,-27.31642l0,10.41992m-121.994,-457.87887l387.89388,436.93795m-351.47561,-440.97254l372.5096,419.60853m-448.13334,150.52543l263.86089,-267.98091m-278.13314,-9.94767l141.61799,-143.82924m-151.68708,108.98092l130.6441,-132.68402m-330.65429,-78.25487l117.6356,-78.42374m678.01621,-48.1592l259.69239,70.42505m-317.74426,-6.33574c-41.33296,34.61757 -88.82013,55.86397 -141.03332,63.69595c-77.19506,11.57926 -165.24623,-6.43541 -258.69921,-56.45334m-29.28845,6.58706c103.51317,59.81338 202.90746,82.85096 290.95642,69.64362c86.56533,-12.9848 161.58423,-61.30369 217.21688,-141.82113m-110.7899,57.63645c-33.86112,23.76579 -71.46616,38.49358 -112.36253,44.62804c-68.31383,10.24707 -147.23478,-4.21593 -232.49759,-47.14031m51.83299,146.53574c141.55979,33.77416 280.14805,12.0389 377.10013,-68.72074m-3.60744,-65.10094l17.16427,274.62827m2.7251,-296.39834c5.17585,82.81351 10.43158,166.90516 14.86149,237.78369m-364.52854,-33.25629c123.68744,18.04212 244.25957,-3.94588 336.97192,-69.98917m-177.93774,70.12888c7.83405,24.73461 23.58718,70.28102 39.86658,93.07218c19.66187,27.52662 60.97272,70.51679 77.7181,87.62075m-90.86929,-185.34214c8.27503,25.50498 22.98472,66.48833 38.15119,87.72139c12.46408,17.44971 33.62796,41.11357 51.71868,60.45788m-63.66532,-154.49703c8.4495,25.61876 22.49057,63.80066 36.94664,84.03915c10.84303,15.18024 28.27005,35.06333 44.5301,52.71421m-55.88857,-144.97711c8.50349,25.57879 22.23286,62.48705 36.35847,82.2629c13.41381,18.77933 36.90372,44.75588 55.79533,64.79992m-776.82337,-182.4686c155.99455,227.65636 133.91149,446.15788 39.01474,633.20208m1006.9408,-580.02677c-53.2268,-48.04534 -91.438,-105.97498 -116.8533,-171.3872c-6.2732,-16.14554 -11.7668,-32.74695 -16.5142,-49.76812m132.2628,259.68052c-86.1222,-69.992 -139.2213,-162.65707 -165.4804,-268.01186m111.2572,29.95068c3.5097,27.01837 30.4012,77.53188 54.9427,106.16652m-1119.5423,-382.13717l-80,-80m0,-40l80,80m0,80l-80,-80m80,355l-80,-80m0,-40l80,80m0,355l-80,-80m0,-40l80,80m0,80l-80,-80m80,355l-80,-80m0,-40l80,80m0,80l-80,-80m80,355l-80,-80m0,-40l80,80m0,80l-80,-80m80,-744.17384l0,864.17384l-80,80m80,-1255.78848l0,182.70263m-80,-536.91415l80,80l0,170.95825m512.66142,581.81064l-100,-110c-20,-30 10,-60 40,-40l100,110m-94.13751,95.60741l-98.52391,-108.3763c-20,-30 10,-60 40,-40l98.19272,108.01199m-89.30784,90.76138l-98.88488,-108.77337c-20,-30 10,-60 40,-40l98.60644,108.46709m-162.55101,-64.38479c4.51896,0.86788 9.23176,2.77583 13.94457,5.9177l98.88554,108.77409m-39.62634,40.41101l-62.91781,-69.20957m0.51486,21.56635l52.37077,57.60782m-39.89231,40.1185l-15.594,-17.1534m143.23601,-360.34011c-1.07786,-0.0888 -2.15214,-0.14044 -3.22086,-0.15555c-1.29732,-0.0183 -2.58589,0.0172 -3.86328,0.10547c-10.21915,0.70597 -19.68751,4.78712 -26.58789,11.6875c-11.54426,11.54425 -15.19004,30.27838 -8.34961,47.68555c-5.92821,-1.85933 -11.94503,-2.54172 -17.72266,-2.14258c-10.21914,0.70597 -19.68946,4.78712 -26.58984,11.6875c-9.67033,9.67033 -13.79327,24.38609 -10.85938,39.14062c-4.22585,-0.84038 -8.44886,-1.11149 -12.55078,-0.82812c-10.21914,0.70597 -19.68946,4.78712 -26.58984,11.6875c-9.61698,9.61698 -13.7484,24.22394 -10.9082,38.89648c-0.28336,-0.0598 -0.56613,-0.13305 -0.84961,-0.1875c-0.98,-0.2026 -1.97781,-0.30663 -2.97852,-0.31054c-0.86967,-0.003 -1.72346,0.068 -2.55505,0.20782m548.14988,-45.14285l-51.30095,54.9653m-11.26995,-152.67295c30.43795,-14.24358 60.78089,-29.93562 91.00079,-47.50301m-79.70245,74.22789c27.32544,-12.6791 54.57526,-26.51104 81.72919,-41.80447m-67.89022,67.34248c23.36041,-10.81061 46.66577,-22.46044 69.90343,-35.14229m-51.5463,58.58272c17.88294,-8.33956 35.73325,-17.17657 53.54525,-26.59757m-33.55642,49.25769c11.86215,-5.5956 23.70971,-11.41378 35.541,-17.47981m-27.99635,48.2721c6.27161,-2.87531 12.53932,-5.81026 18.80286,-8.80858m-90.6897,-122.65994l41.92874,-34.08555l-50.34912,10.6266m20.03539,51.21071l45.31373,-36.83731l-52.69087,11.12084m21.24367,51.63799l46.4472,-37.75883l-52.69087,11.12084m23.93272,49.45191l43.75815,-35.57275l-52.69087,11.12084m64.60704,14.53004l-49.60704,10.46996m12.97379,21.16674l36.74254,-29.86946m-2.45175,27.94831l-27.26458,5.75441m4.56737,28.00068l18.25945,-14.84384m-143.39109,-28.45217l-61.74486,-5.82551l50,-20m31.74486,50.82551l-61.74486,-5.82551l45.99542,-18.39817m35.74944,49.22366l-61.74486,-5.82549l46.29268,-18.51707m35.45218,49.34258l-61.74486,-5.82551l48.07627,-19.23051m22.41104,49.46563l-55.48731,-5.23512l50,-20m-88.12487,-133.84348c-45.67506,6.44339 -87.51951,11.32255 -128.23276,13.29279m128.10249,-13.6238l-61.74486,-5.82551l50,-20m24.46281,56.69083c-37.55991,5.86588 -76.03653,10.14182 -115.74062,12.28875m115.20625,-13.41979l-58.92844,-5.55979l48.66615,-19.46646m26.87701,55.19261c-34.2109,5.51232 -69.17229,9.72296 -105.12088,12.22137c-0.11275,0.008 -0.22552,0.0157 -0.33829,0.0235m125.47846,12.75202c-33.67312,5.42619 -68.07331,9.59137 -103.42624,12.10401m125.32413,12.5887c-33.62642,5.4703 -67.97482,9.68837 -103.27051,12.26341m125.81017,12.32084c-33.78449,5.56514 -68.2936,9.87349 -103.75657,12.52741m102.93184,14.97771c-26.5723,4.03432 -53.60856,7.26393 -81.21807,9.49927m49.58189,22.2101c-9.11779,0.98051 -18.29553,1.85704 -27.53732,2.62246m40.6247,-15.36262l-15.62647,-1.47433l27.64283,-11.05713m-719.89026,-213.3509c129.03807,202.3061 110.48599,391.09323 29.07803,558.57083m-22.16692,-677.11269c211.43274,263.85053 187.39438,526.87369 72.80724,741.45849m23.22689,36.9821c127.5664,-228.1802 159.31836,-517.65193 -64.97783,-799.21625m-30.93979,20.8572c211.31623,263.76899 187.27787,526.79215 73.07331,741.73825m-41.83321,-762.7079c223.99588,281.67677 192.24392,571.1485 64.81741,798.8243m-140.8377,-654.9863c0,0 9.29102,14.99519 24.32798,10.10747c15.33977,-4.98615 32.14602,-55.04738 30.67202,-80.10747c-1.46792,-24.95687 -15,-65 -15,-70c0,-5 1.90858,-14.69086 1.90858,-34.69086c0,-30 -31.90858,-45.30914 -34.07257,-2.52687c-0.62681,12.39205 2.16399,17.21773 7.16399,32.21773m0,0c-0.67582,4.55173 -10,15 -10,20c0,20 8.28635,22.80911 8.28635,22.80911m-113.28635,-5.30911a52.5,17.5 0 0 1 52.5,-17.5a52.5,17.5 0 0 1 52.5,17.5a52.5,17.5 0 0 1 -52.5,17.5a52.5,17.5 0 0 1 -52.5,-17.5m0,32.5c0,0 0,0 0,0c0,-7.26326 13.90676,-13.49304 33.71027,-16.14069m40.12632,-0.30605c21.09857,2.44701 36.16341,8.8871 36.16341,16.44674c0,9.66498 -24.62434,17.5 -55,17.5c-30.37566,0 -55,-7.83502 -55,-17.5m0,35a52.5,17.5 0 0 1 52.5,-17.5a52.5,17.5 0 0 1 52.5,17.5a52.5,17.5 0 0 1 -52.5,17.5a52.5,17.5 0 0 1 -52.5,-17.5m81.19061,14.82855c14.23053,3.02271 23.80939,8.68495 23.80939,15.17145c0,9.66498 -21.26647,17.5 -47.5,17.5c-26.23353,0 -47.5,-7.83502 -47.5,-17.5c0,-5.87034 7.84548,-11.06558 19.88422,-14.24016m41.46956,-99.40606l-71.35376,-71.35376m0.01953,-205.14518c97.5343,-3.24803 187.02614,-31.27661 264.98045,-94.85484c-22.41793,93.96614 -78.4533,175.54153 -264.80792,209.08377m-0.16597,-94.21863c80.50755,-2.60342 156.86723,-21.84305 225.87233,-63.11709c-10.85668,22.34572 -25.47792,42.95775 -46.27149,61.54687c-36.09551,32.26884 -91.55673,59.18605 -179.32388,75.43855m403.48076,-206.10928c-67.52129,142.03099 -56.41349,233.16289 -83.78383,267.37581c-20,25 -55,30 -55,0c0,-35 34.89995,-14.62572 35,-10m120.14983,-260.2641c-69.20421,143.56258 -59.51178,234.37083 -85.14983,270.2641c-25,35 -70,30 -70,0m171.41732,-272.88964c-70.64565,145.04397 -61.35809,236.26461 -86.41732,272.88964c-65,95 -110,35 -110,0c0,-75 90,-50 85,-10m127.66924,-265.48975c-72.34054,146.36324 -67.70513,235.56154 -87.66924,275.48975c-20,40 -77.60248,65.60999 -94.57243,48.74508m198.33526,-326.43998c-73.48122,147.67298 -68.69866,237.56656 -88.76283,277.6949c-20,40 -64.49987,68.13553 -85,55m189.86189,-334.9028c-74.68563,148.90369 -70.97019,237.68584 -86.80155,279.9028c-15,40 -63.99783,80.55502 -88.06034,60m190.98907,-342.13449c-75.71993,150.31773 -68.16234,241.7626 -84.86838,283.88326c-21.12069,53.25123 -54.5648,85.89782 -82.24771,66.01329m183.2102,-352.06186c-76.90784,151.61097 -70.00722,243.96225 -83.77653,287.36014c-13.30665,41.93966 -48.25659,87.45184 -77.46199,69.58059m177.10812,-358.65012c-77.81229,152.62388 -69.80388,245.3581 -79.83702,289.94392c-8.11576,36.06527 -38.53912,92.08677 -74.50667,71.49813m170.22308,-363.16075c-78.66622,153.69272 -61.87486,251.62997 -76.34449,295.16016c-12.48768,37.56773 -39.31052,80.99042 -68.3011,71.27341m160.52663,-368.14946c-79.66707,154.67057 -60.42724,249.282 -68.04449,294.69009c-6.66872,39.75369 -36.09656,76.4663 -68.19448,69.62872m151.52576,-364.87503c-80,155 -52.50211,250.817 -63.08498,295.6835c-6.91502,29.3165 -28.0787,68.33298 -57.54152,65.64991m135.6265,-361.33341c-80,155 -40.20318,258.59763 -57.40148,301.367c-14.96324,37.21112 -34.46264,50.38617 -51.88548,51.96249m387.20974,-362.95997c5.55258,19.87457 17.07722,62.03949 17.07722,69.63048c0,10 -10,40 -10,55c0,15 -10,70 -20,95c-10,25 -45,90 -50,100c-5,10 -9.80911,39.56281 -24.80911,44.56281c-15,5 -50.19089,20.43719 -65.19089,10.43719c-15,-10 -20,-15 -30,-15c-10,0 -30,5 -45,0c-15,-5 -85,-15 -90,-30c-4.37927,-13.20852 -10,-20 -12.37685,-37.81404m57.37685,-207.18596c38.33434,-16.37294 66.18557,-53.25333 135,-10l0,0l-5,5c-36.11885,-35.30746 -82.46014,-18.22506 -130,5l0,0m285,-10c-35,-15 -45,-30 -95,5l0,0c30,-15 66.71102,-25.58291 95,-5l0,0m-95,5c-5.6154,2.79579 -7.25819,21.1243 -5,30c2.46569,9.69125 15,50 15,60c0,10 8.93473,52.18596 8.93473,57.18596c0,10 -18.93473,17.81404 -33.93473,17.81404m-35,-40c-20.80837,1.70765 -37.88441,39.0889 9.3165,31.367c30.01481,-4.91033 10.6835,-11.367 -19.3165,-1.367m-35,40l0,15l10,-10l-10,-5l0,0m110,-5l-5,10l-10,-5l15,-5l0,0m-105,10c15,0 30,-10 35,-10c5,0 15,10 20,10c5,0 15,-10 20,-10c5,0 10,5 15,5m-55,30c10.01679,10.83217 40,15 40,-10m-180,-175c35,5 80,-30 120,-30m-80,25c-5,15 55,25 70,15c15,-10 20,-5 20,-5m65.92308,-4.73452c20,0 52.33169,-22.79967 70,-25c17.66831,-2.20033 20,10 20,10m-90.92308,14.73452c20,10 33.07061,20 52.77504,20c19.70444,0 37.22496,-15 37.22496,-15m2.739,-123.7807c34.06565,55.27142 16.54777,119.18838 17.261,178.7807c0.8771,16.2765 15,10 20,5m-44.12918,-27.09726c-13.19106,78.84666 64.12918,69.14029 64.12918,27.09726c0,-40 -40,-25 -40,-5m-5,35c0,45 20,70 35,45m-66.74164,-47.32219c-0.10916,88.18272 94.8039,106.82025 86.74164,42.32219c-5,-40 -50,-20 -49.35411,-3.3237m-50.93616,-7.25685c3.98247,49.73305 43.72382,72.86691 75.29027,60.58055c18.6631,-7.26409 21.41954,-17.96959 21.12553,-24.43459m-109.7447,-10.33873c8.17351,42.72445 66.43503,68.94402 93.61917,34.77332m-103.04164,-17.0201c9.23009,40.69099 44.6545,58.76253 73.33191,47.60065c9.37718,-3.78954 17.97636,-11.41482 19.48762,-21.62957m-101.29406,-10.20631c11.12771,36.61173 44.52103,52.45596 71.80644,41.83588c10.07967,-3.92323 15.51949,-8.85029 18.34481,-13.57099m-99.20619,-10.35763c6.14859,37.14216 80.06298,56.92175 91.04012,18.90786m19.69043,-379.7803l-34.261,-0.76972c-20.57241,-0.46203 -41.18813,-0.75012 -61.84766,-0.83985c-144.61668,-0.62811 -291.43473,8.51346 -441.39258,36.50977l-25.62291,4.78298m-157.51166,-165.46286l190.47637,200.00019c167.85386,-31.33739 332.223,-38.65572 495,-35l156.0815,-165.00048m-568.75239,571.72569c96.1261,49.65099 189.63098,68.81642 274.62206,56.06776c92.08707,-13.81305 172.41975,-65.87574 230.70508,-150.23242l3.63322,-5.2579" fill="none" stroke-width="6" stroke-linejoin="round" stroke-linecap="round" stroke="#44F"/>
 </symbol>
 <symbol viewBox="0 0 1300 2000" preserveAspectRatio="none" id="DJ6">
  <path id="svg_8" d="m85,590c-4.70079,8.72507 -5.18679,17.0989 0,25m3.71008,6.88418c-4.70079,8.72507 -5.18679,17.0989 0,25m0,10c-4.70079,8.72507 -5.18679,17.0989 0,25m0,5c-4.70079,8.72507 -5.18679,17.0989 0,25m41.28992,-201.88418c0,25 10,30 10,30m-89.07231,57.4996c-1.13052,2.57966 -1.33893,5.77405 0,10m0,23.02404c-1.13052,2.57966 -1.33893,5.77405 0,10m0,24.47596c-1.13052,2.57966 -1.33893,5.77405 0,10m0,25.0004c-1.13052,2.57966 -1.33893,5.77405 0,10m0,-13.84068c-1.13052,2.57966 -1.33893,5.77405 0,10m674.07231,-206.15932c25,-10 40,-10 50,-5m-70,-240c-30,-20 -60.95115,-7.27972 -90,15m170,5c24.49605,-30.28885 50.8757,-35.96138 70,-25m-162.45974,8.60402c5.79878,4.0092 9.63542,10.97454 9.63542,18.89598c0,12.42641 -9.44135,22.5 -21.08785,22.5c-11.6465,0 -21.08785,-10.07359 -21.08785,-22.5c0,-3.28538 0.65995,-6.40629 1.84613,-9.22005m191.2777,-6.54105c6.97583,3.39911 11.87622,11.41458 11.87622,20.7611c0,12.42641 -8.66208,22.5 -19.34729,22.5c-10.68521,0 -19.34729,-10.07359 -19.34729,-22.5c0,-3.81643 0.81704,-7.41094 2.25881,-10.55985m6.43574,45.38333c11.29232,3.96884 26.09989,-0.36152 27.06897,-2.32348m-344.09972,194.82169c39.56869,23.53667 86.51965,45.26984 132.03075,45.17831m-124.63118,-56.73396c40.10282,24.12561 88.11895,46.82751 134.63118,46.73396" fill="none" stroke-width="3" stroke-linejoin="round" stroke-linecap="round" stroke="#44F"/>
  <use id="svg_9" x="0" y="0" stroke-linecap="round" stroke-linejoin="round" stroke-width="36" stroke="#44F" transform="matrix(1, 0, 0, 0.972, 550, 902.8)" width="200" height="200" xlink:href="#D"/>
  <use id="svg_10" x="344.33621" y="-327.01706" transform="rotate(-26, 860.571, 586.812) matrix(1, 0, 0, 0.972, 869, 573.7)" width="50" height="50" xlink:href="#D"/>
  <use id="svg_11" x="288.01941" y="-270.15085" transform="rotate(-22, 819.455, 609.572) matrix(1, 0, 0, 0.972, 827, 598.7)" width="50" height="50" xlink:href="#D"/>
  <use id="svg_12" x="173.34764" y="-174.07635" transform="rotate(-14, 775.695, 621.301) matrix(1, 0, 0, 0.972, 781, 614.7)" width="50" height="50" xlink:href="#D"/>
  <use id="svg_13" x="69.67929" y="-74.91122" transform="rotate(-6, 729.524, 628.373) matrix(1, 0, 0, 0.972, 732, 625.7)" width="50" height="50" xlink:href="#D"/>
  <use id="svg_14" x="0" y="0" transform="matrix(1, 0, 0, 0.972, 681, 630.7)" width="50" height="50" xlink:href="#D"/>
  <use id="svg_15" x="-52.20849" y="59.23679" transform="rotate(5, 633.274, 626.675) matrix(1, 0, 0, 0.972, 631, 628.7)" width="50" height="50" xlink:href="#D"/>
  <use id="svg_16" x="-98.54848" y="114.49048" transform="rotate(10, 586.721, 618.85) matrix(1, 0, 0, 0.972, 582, 622.7)" width="50" height="50" xlink:href="#D"/>
  <use id="svg_17" x="-138.68576" y="165.69394" transform="rotate(15, 542.322, 607.239) matrix(1, 0, 0, 0.972, 535, 612.7)" width="50" height="50" xlink:href="#D"/>
 </symbol>
 <g>
  <title>Layer 1</title>
  <g id="svg_39">
   <use transform="matrix(1.46015, 0, 0, 1.29525, -1.69275, 0.118117)" id="svg_19" xlink:href="#DJ1" y="-0.4" x="0.6" height="260.8" width="164.8"/>
   <use id="svg_20" xlink:href="#DJ1" y="-0.4" x="0.6" height="260.8" width="164.8" transform="matrix(-1.46015, 0, 0, -1.29525, 240.693, 336.882)"/>
   <use transform="matrix(1.46015, 0, 0, 1.29525, -1.69275, 0.118117)" id="svg_21" xlink:href="#DJ2" y="-0.4" x="0.6" height="260.8" width="164.8"/>
   <use id="svg_22" xlink:href="#DJ2" y="-0.4" x="0.6" height="260.8" width="164.8" transform="matrix(-1.46015, 0, 0, -1.29525, 240.693, 336.882)"/>
   <use transform="matrix(1.46015, 0, 0, 1.29525, -1.69275, 0.118117)" id="svg_23" xlink:href="#DJ3" y="-0.4" x="0.6" height="260.8" width="164.8"/>
   <use id="svg_24" xlink:href="#DJ3" y="-0.4" x="0.6" height="260.8" width="164.8" transform="matrix(-1.46015, 0, 0, -1.29525, 240.693, 336.882)"/>
   <use transform="matrix(1.46015, 0, 0, 1.29525, -1.69275, 0.118117)" id="svg_25" xlink:href="#DJ4" y="-0.4" x="0.6" height="260.8" width="164.8"/>
   <use id="svg_26" xlink:href="#DJ4" y="-0.4" x="0.6" height="260.8" width="164.8" transform="matrix(-1.46015, 0, 0, -1.29525, 240.693, 336.882)"/>
   <use transform="matrix(1.46015, 0, 0, 1.29525, -1.69275, 0.118117)" id="svg_27" xlink:href="#DJ5" y="-0.4" x="0.6" height="260.8" width="164.8"/>
   <use id="svg_28" xlink:href="#DJ5" y="-0.4" x="0.6" height="260.8" width="164.8" transform="matrix(-1.46015, 0, 0, -1.29525, 240.693, 336.882)"/>
   <use transform="matrix(1.46015, 0, 0, 1.29525, -1.69275, 0.118117)" id="svg_29" xlink:href="#DJ6" y="-0.4" x="0.6" height="260.8" width="164.8"/>
   <use id="svg_30" xlink:href="#DJ6" y="-0.4" x="0.6" height="260.8" width="164.8" transform="matrix(-1.46015, 0, 0, -1.29525, 240.693, 336.882)"/>
   <use transform="matrix(1.46015, 0, 0, 1.29525, -1.69275, 0.118117)" id="svg_33" y="-2.16" x="117" width="55.68" height="55.68" xlink:href="#D"/>
  </g>
 </g>
</svg>