<svg width="240" height="336" xmlns="http://www.w3.org/2000/svg" xmlns:xlink="http://www.w3.org/1999/xlink" face="KD" class="card" preserveAspectRatio="none">
 <defs>
  <rect y="-130.4" x="-82.4" height="260.8" width="164.8" id="DKX"/>
 </defs>
 <symbol preserveAspectRatio="xMinYMid" viewBox="-500 -500 1000 1000" id="DK">
  <path id="svg_1" fill="none" stroke-miterlimit="1.5" stroke-linecap="square" stroke-width="80" d="m-285,-460l200,0m-100,0l0,920m-100,0l200,0m170,-920l200,0m-100,20l-355,595m255,305l200,0m-100,-20l-195,-510"/>
 </symbol>
 <symbol preserveAspectRatio="xMinYMid" viewBox="-600 -600 1200 1200" id="D">
  <path id="svg_2" d="m-400,0c50,0 400,-450 400,-500c0,50 350,500 400,500c-50,0 -400,450 -400,500c0,-50 -350,-500 -400,-500z"/>
 </symbol>
 <symbol viewBox="0 0 1300 2000" preserveAspectRatio="none" id="DK1">
  <path id="svg_3" d="m426.28125,0c36.47161,61.81431 68.48061,122.79415 83.71875,190c220,-50 290,135 490,75c-6.14769,-107.69816 56.1153,-197.83737 111.957,-265l-685.67575,0zm873.71875,80l-80,80l0.459,444.0918c29.1573,15.31294 56.8802,32.77835 79.541,49.82812l0,-573.91992zm-569.57617,480l-18.42969,16.25977c-74.36078,65.61245 -115.84337,79.92354 -204.67187,102.39257l18.44335,129.40625c94.82558,-23.70639 169.08909,-49.27473 253.07032,-118.05859l83.00586,0c-36.78346,78.64714 -60.01816,153.33497 -73.57813,225l-260.58008,0l-0.42187,25l256.63086,0c-28.00362,175.1226 0.23259,332.4822 26.88086,486.0449c48.28627,-3.559 94.94466,-5.651 84.22656,43.9551l122.0977,-48.6777c-89.07578,-265.3039 -178.62826,-449.20545 8.7128,-763.00199l58.6973,-98.32031l-354.08397,0zm330.37307,88.53711l-15.3281,25.76562c108.8237,68.97904 172.6249,150.48428 209.0898,262.34571l27.6641,-11.84766c-38.8075,-116.69374 -108.3295,-204.49408 -221.4258,-276.26367zm-23.2324,39.33203l-11.0723,19.89258c4.5725,14.6211 -28.11324,34.81839 -9.7012,47.17383c20.4797,13.74293 35.3035,-2.51626 53.209,-19.93555c-14.9048,20.04709 -30.6967,38.70115 -10,55c19.4354,16.73082 36.5202,-2.19565 54.9844,-19.02148c-15.5509,19.55013 -29.9839,39.02167 -17.5938,56.48046c12.7916,18.0245 38.1411,-0.88906 60.2285,-12.55859c-19.9486,15.03623 -45.2814,28.28637 -32.6191,50.09961c12.5467,21.61399 39.1893,10.78943 62.5371,1.90625c-21.6364,12.48599 -43.3696,25.90984 -32.5371,48.09375c10.3717,21.24013 33.2381,11.17402 57.7031,6.125c-23.9263,7.68906 -52.1646,19.08916 -29.3027,51.67188l23.1133,-14.09766c-20.7144,4.57302 -16.8573,-10.76104 -3.6641,-12.7832c39.846,-6.10727 26.3373,-27.50286 33.8945,-34.34375c-11.7554,-0.39965 -13.6382,-25.32894 -49.3281,-6.58789c-19.7209,7.81556 -18.3586,-7.93641 -5.6562,-12.03516c38.3635,-12.37896 21.6177,-31.34887 27.9882,-39.30664c-11.6689,1.47877 -17.5003,-22.83069 -48.6718,0.21289c-17.5424,9.02132 -18.1142,-6.78021 -6.0078,-12.40039c36.5634,-16.97392 17.6242,-33.75507 22.9746,-42.43164c-11.4008,2.89354 -20.159,-20.52233 -49.209,7.42578c-15.4814,14.50263 -19.9885,-0.65194 -9.6738,-9.12305c31.152,-25.58417 8.6163,-37.09063 11.625,-46.83008c-10.3139,5.65464 -24.6539,-14.82494 -45.7852,19.50391c-15,15 -19.9996,0.0004 -9.9668,-8.80273c30.3007,-26.5869 7.4004,-37.35312 10.0898,-47.18555c-10.124,5.98813 -25.123,-14.01172 -45.123,20.98828c-13.4656,16.39141 -19.9037,1.95058 -10.7773,-7.78906c19.814,-21.14534 13.0646,-31.47365 8.3418,-39.3418zm262.4355,337.62696c-115.9181,49.919 -199.8665,115.6362 -251.293,246.2715l-3.1601,9.8496c-14.1711,6.3701 -28.6586,12.5292 -43.2891,18.3476c12.1852,35.715 25.4267,73.4781 37.9317,111.0918c79.0265,-34.5097 160.3202,-78.7522 259.8105,-144.4511l0,-241.1094z" fill="#FC4"/>
 </symbol>
 <symbol viewBox="0 0 1300 2000" preserveAspectRatio="none" id="DK2">
  <path id="svg_4" d="m750.06055,71.41602c-8.08982,7.0578 -17.8132,12.83438 -28.66016,16.60351c-5.08019,17.49775 -12.87292,32.76569 -23.08984,45.49609c-57.34444,-8.46649 -118.20953,-13.38592 -182.86524,-7.31054c-0.23353,-1.28345 -1.0363,-2.56048 -1.79883,-3.84375c-8.76088,-14.74373 -13.22805,-28.23719 -17.21289,-39.74024c-10.55981,-2.08717 -20.46867,-6.12353 -29.67773,-10.00781c18.85292,38.80582 34.07998,76.9694 43.24414,117.38672c220,-50 290,135 490,75c-3.10327,-54.36459 11.2261,-104.25691 33.2832,-148.72656c-7.2955,1.61396 -15.012,2.78203 -23.2832,3.72656c-2.7462,15.65937 -7.5914,29.77038 -15.18164,42.07617c-62.43846,13.15325 -131.21343,0.63488 -208.16797,-13.49023c-7.44024,-15.9039 -12.00372,-34.03953 -12.78906,-53.95117c-9.61184,-6.34906 -17.65325,-14.36557 -23.80078,-23.21875zm549.93945,65.15429l-40,39.99805l1.2617,450.92969c14.2413,8.90673 27.2118,17.77157 38.7383,26.43164l0,-517.35938zm-186.9375,426.5625l-7.0898,9.68164l-58.6973,98.32032l65.7871,-108.00196zm-88.0039,26.09375c-8.7637,0.25357 -24.385,4.42685 -26.29102,0.76172c-1.81053,3.0259 -2.76758,6.48552 -2.76758,10.01172c0,10.22139 7.8934,18.70867 18.0879,19.44922c-2.5656,-4.93351 19.2511,-23.80086 16.6855,-28.73438c-0.6353,-1.22171 -2.7936,-1.5728 -5.7148,-1.48828zm-279.50391,0.76172c-4.46896,3.70463 -7.05469,9.2069 -7.05469,15.01172c0,10.76955 8.73045,19.5 19.5,19.5c10.76955,0 19.5,-8.73045 19.5,-19.5c0,-5.80106 -2.58284,-11.30117 -7.04688,-15.00586l-24.89843,-0.00586zm80.71289,0c-1.81053,3.0259 -2.76758,6.48552 -2.76758,10.01172c0,10.76955 8.73045,19.5 19.5,19.5c10.76955,0 19.5,-8.73045 19.5,-19.5c0,-3.5258 -0.9555,-6.98606 -2.76562,-10.01172l-33.4668,0zm87.5,0c-1.81053,3.0259 -2.76758,6.48552 -2.76758,10.01172c0,10.76955 8.73045,19.5 19.5,19.5c10.76955,0 19.5,-8.73045 19.5,-19.5c0,-3.5258 -0.9555,-6.98606 -2.76562,-10.01172l-33.4668,0zm-225.76758,45.51172c-0.65843,0 -1.31564,0.033 -1.9707,0.0996l-15.43946,10.61523c-1.37453,2.72418 -2.08984,5.73387 -2.08984,8.78517c0,10.76955 8.73045,19.5 19.5,19.5c10.76955,0 19.5,-8.73045 19.5,-19.5c0,-10.76955 -8.73045,-19.5 -19.5,-19.5zm282.5,20c-10.76955,0 -19.5,8.73045 -19.5,19.5c0,10.76955 8.73045,19.5 19.5,19.5c0.21902,0 0.43736,-0.005 0.65625,-0.0117l16.12891,-29.41406c-3.50909,-5.93427 -9.89103,-9.57424 -16.78516,-9.57424zm-354.57812,20.2207l-18.26368,7.24219c-2.69408,3.43381 -4.1582,7.67257 -4.1582,12.03711c0,10.76955 8.73045,19.5 19.5,19.5c10.76955,0 19.5,-8.73045 19.5,-19.5c0,-9.64087 -7.04617,-17.83427 -16.57812,-19.2793zm162.91406,14.2793c-83.98123,68.78386 -158.24572,94.35221 -254.41602,119.0293l290.46875,0.77343c12.36074,-39.08318 27.82655,-78.90797 46.95313,-119.80273l-83.00586,0zm-240.04492,11.37891l-19.94922,5.21289c-3.43017,3.62183 -5.3418,8.41984 -5.3418,13.4082c0,10.76955 8.73045,19.5 19.5,19.5c10.76955,0 19.5,-8.73045 19.5,-19.5c0,-8.53906 -5.55507,-16.08548 -13.70898,-18.62109zm391.70898,29.12109c-10.76955,0 -19.5,8.73045 -19.5,19.5c0,10.76955 8.73045,19.5 19.5,19.5c1.85186,0 3.6952,-0.26356 5.47266,-0.7832l12.02148,-27.33203c-3.28194,-6.66419 -10.06564,-10.88477 -17.49414,-10.88477zm-30,80c-10.76955,0 -19.5,8.73045 -19.5,19.5c0,10.76955 8.73045,19.5 19.5,19.5c2.47269,0 4.92374,-0.47122 7.2207,-1.38672l9.05664,-28.84961c-3.60858,-5.47095 -9.72348,-8.76367 -16.27734,-8.76367zm73.37891,13.07227c-30.28734,84.62012 -37.40112,159.34009 -31.17188,232.30663c4.04514,47.383 14.00524,94.2663 27.80859,143.3203c35.46708,-73.4062 82.79598,-130.262 138.20118,-174.9765l-6.2129,-20.6524c-25.4532,-89.08574 -50.378,-129.3864 -128.62499,-179.99803zm323.72849,121.93359l-9.2754,3.73633l11.668,28.96484l0,-26.76172l-2.3926,-5.93945zm-97.8262,46.55078l-8.6874,4.95313l36.7324,64.40043l8.6855,-4.9551l-36.7305,-64.39846zm100.2188,61.95706l-21.3887,8.584l10.5782,22.2617l10.8105,-4.8379l0,-26.0078zm-191.6797,2.7285l-7.4141,6.7109l49.4766,54.6621l7.4141,-6.709l-49.4766,-54.664zm127.6934,28.5254l-31.8164,20.6289l14.0996,19.8105l30.0527,-19.373l-12.3359,-21.0664zm-67.1856,49.3027l-26.3652,26.8945l18.5098,16.0332l24.3164,-25.082l-16.461,-17.8457zm-133.6465,3.5547l-5.5878,8.293l61.8281,41.6562l5.5879,-8.293l-61.8282,-41.6562zm77.92,62.1289l-17.7383,30.2441l21.8242,11.5782l16.6445,-28.375l-20.7304,-13.4473zm-129.3516,32.9102l-3.76953,9.2617l69.16793,28.1601l3.7715,-9.2617l-69.1699,-28.1601z" />
 </symbol>
 <symbol viewBox="0 0 1300 2000" preserveAspectRatio="none" id="DK3">
  <path id="svg_5" d="m600,445c-40,0 -85,-35 -85,-35l0,-15c40,15 30,45 85,50m-75,-235l-5,15c0,0 45,-5 55,-5c30,0 60,45 95,45c-35,0 -65,-55 -95.29027,-56.16109c-9.99266,-0.38305 -13.61398,9.41945 -33.61398,9.41945c-4.71405,0 -16.09575,-8.25836 -16.09575,-8.25836zm49.66702,73.06149a11.24899,20.38465 0 0 1 -11.24899,20.38465a11.24899,20.38465 0 0 1 -11.24899,-20.38465a11.24899,20.38465 0 0 1 11.24899,-20.38464a11.24899,20.38465 0 0 1 11.24899,20.38464zm-85.65816,289.63694l133.64115,3.8248c19.96544,0.52183 52.3422,-5.55803 72.98839,-38.35624c8.82161,11.65309 21.89723,16.73002 35.87243,16.96944l-1.087,4.86357l-18.42969,16.25977c-74.36078,65.61245 -115.84262,79.92381 -204.95079,102.13167c-5.83569,-35.70851 -11.98026,-70.7978 -18.03449,-105.69301zm310.99114,32.30157c0,23.19596 -18.80404,42 -42,42c-29.83941,0.63699 -35.20181,-40.06181 -49.39258,-28.5957c13.21369,7.44091 21.39258,21.42801 21.39258,36.5957c0,23.19596 -18.80404,42 -42,42c-20.92772,0 -38.65526,-15.40633 -41.58398,-36.11914c-1.7829,0.98077 -3.56529,1.93576 -5.34961,2.87695c8.8669,7.96546 13.93359,19.32181 13.93359,31.24219c0,23.19596 -18.80404,42 -42,42c-17.87462,0 -33.13143,-11.17088 -39.19531,-26.9082c0.78282,3.22367 1.19531,6.54704 1.19531,9.9082c0,23.19596 -18.80404,42 -42,42c-5.15691,0 -10.26911,-0.94888 -15.08203,-2.80078l2.2168,19.34375c96.2619,-24.13712 164.25694,-47.6079 247.79101,-118.54297l142.39453,0c-156.78693,297.27564 -107.90617,528.8571 -68.79687,765.2539c30.59918,0.3778 51.77184,10.1961 52.52911,40.46l95.31268,-32.7686c-74.33169,-196.5704 -139.01586,-358.1578 -88.23437,-560.95116c-0.21045,0.00294 -0.42039,0.00586 -0.63086,0.00586c-23.19596,0 -42,-18.80404 -42,-42c0,-23.19596 18.80404,-42 42,-42c8.80364,0 17.3828,2.76816 24.52734,7.9082c0.51273,-1.36306 1.02957,-2.72657 1.55274,-4.09375c-21.57705,-2.02211 -38.08008,-20.1333 -38.08008,-41.81445c0,-23.19596 18.80404,-42 42,-42c10.39004,0 20.40683,3.85348 28.12109,10.80859c0.51029,-1.03432 1.01901,-2.06867 1.53516,-3.10547c-18.61309,-4.72991 -31.65625,-21.48621 -31.65625,-40.70312c0,-23.19596 18.80404,-42 42,-42c10.66714,0 20.93338,4.05835 28.7168,11.35156c0.28021,-0.4708 0.5526,-0.93884 0.834,-1.41015l1.9023,-3.18555c-17.01406,-5.79764 -28.4531,-21.78051 -28.4531,-39.75586c0,-3.37003 0.40653,-6.72693 1.20898,-10l-3.41796,0c0.80242,3.27303 1.20899,6.63002 1.20898,10c0,23.19596 -18.80404,42 -42,42c-23.19596,0 -42,-18.80404 -42,-42c0,-3.37003 0.40653,-6.72693 1.20898,-10l-5.91796,0c0.80242,3.27303 1.20899,6.63002 1.20898,10c0,23.19596 -18.80404,42 -42,42c-23.19596,0 -42,-18.80404 -42,-42c0,-3.37003 0.40653,-6.72693 1.20898,-10c-9.20029,-1.20745 -2.26146,7.46758 -2.20898,15zm175.10352,-15l55.56638,1.6543l0.9883,-1.6543l-56.55468,0zm23.63168,172.89986c94.5834,60.40167 136.8968,120.76076 165.8987,221.53143l18.7661,-11.63445c-22.8619,-32.5827 5.3761,-43.98227 29.3024,-51.67133c-24.465,5.04902 -47.3307,15.11462 -57.7024,-6.12551c-10.8325,-22.18391 10.9,-35.6086 32.5364,-48.09459c-23.3478,8.88318 -49.9897,19.70858 -62.5364,-1.90541c-12.6623,-21.81324 12.6704,-35.06278 32.619,-50.09901c-22.0874,11.66953 -47.4373,30.5823 -60.2289,12.5578c-12.3901,-17.45879 2.043,-36.92988 17.5939,-56.48001c-18.4642,16.82583 -35.5486,35.75204 -54.984,19.02122c-20.6967,-16.29885 -4.9048,-34.95291 10,-55c-17.9055,17.41929 -32.7286,33.67924 -53.2083,19.93631c-18.41208,-12.35544 14.2739,-32.55318 9.7014,-47.17428m228.066,228.88719c-36.4649,-111.86143 -100.2672,-193.36837 -209.0911,-262.34741l-7.9036,13.56809c4.7228,7.86815 11.4714,18.19567 -8.3426,39.34101c-9.1264,9.73964 -2.6874,24.1805 10.7782,7.78909c20,-35 35,-15 45.124,-20.98813c-2.6894,9.83243 20.2095,20.5981 -10.0912,47.185c-10.0328,8.80313 -5.0328,23.80313 9.9672,8.80313c21.1313,-34.32885 35.4708,-13.85011 45.7847,-19.50475c-3.0087,9.73945 19.5268,21.24648 -11.6252,46.83065c-10.3147,8.47111 -5.8067,23.62626 9.6747,9.12363c29.05,-27.94811 37.8082,-4.53242 49.209,-7.42596c-5.3504,8.67657 13.5882,25.45717 -22.9752,42.43109c-12.1064,5.62018 -11.5346,21.42125 6.0078,12.39993c31.1715,-23.04358 37.0029,1.26683 48.6718,-0.21194c-6.3705,7.95777 10.3757,26.92678 -27.9878,39.30574c-12.7024,4.09875 -14.0656,19.85129 5.6553,12.03573c35.6899,-18.74104 37.5728,6.18798 49.3282,6.58763c-7.5572,6.84089 5.9522,28.23612 -33.8938,34.34339c-13.1932,2.02216 -17.0493,17.35616 3.6651,12.78314l48.0445,-22.04906zm-111.8033,62.20238l-1.791,-6.26957c-27.6342,-96.71953 -63.3338,-149.57431 -152.39653,-206.61799l-14.64523,37.85888c78.20346,50.36129 103.12766,90.66162 128.58086,179.74738l5.9889,20.9627" fill="#44F"/>
 </symbol>
 <symbol viewBox="0 0 1300 2000" preserveAspectRatio="none" id="DK4">
  <path id="svg_6" d="m1084.5078,560l-58.6973,98.32031c-187.34106,313.79654 -97.78858,497.69809 -8.7128,763.00199l23.0918,-10.2657l-57.76177,-175.5117c64.44687,-156.058 179.24057,-235.86503 317.57227,-291.10154l0,-26.82813c-138.0212,53.79548 -258.3284,132.83987 -329.17188,282.38677l0.79493,2.7089l-1.41993,-4.3144c-13.49084,-48.2508 -23.45095,-95.1346 -27.49609,-142.5176c-9.68778,-113.47837 12.89838,-231.1969 104.56837,-384.74413l58.6973,-98.32032l-29.7813,49.91602c108.4953,68.99728 180.9432,154.62041 223.8086,263.28515l0,-232.0996c-52.1129,-39.22645 -130.6733,-80.47322 -187.9805,-91.01172l-0.064,0.10742l-27.4477,-3.01172zm-864.5078,65c-38.24283,16.86912 -50.72991,39.82024 -50.18359,65.84961c-13.28958,-0.34787 -27.53429,4.81132 -43.6211,20.5957c2.94533,-9.90427 3.41809,-20.65962 3.80469,-31.44531c-38.31166,16.89948 -50.77594,39.90293 -50.18164,65.99023c-9.1507,0.74028 -18.78812,4.28441 -29.18555,12.21485c3.44271,-10.38417 3.95753,-21.7761 4.36719,-33.20508c-38.53731,16.99901 -50.92212,40.17375 -50.16992,66.45117c-1.5943,0.20849 -3.2042,0.51147 -4.83008,0.90235l0,13.44921c6.45509,-0.82275 13.02922,-0.95336 22.25977,-0.58593c-9.04909,2.62137 -15.42237,4.46267 -22.25977,5.79882l0,13.97071c15.19651,0.00072 32.09672,-6.11846 51.39453,-20.84766c-11.46318,-5.78838 -22.94978,-11.43728 -35.18359,-12.78125c13.19057,-5.09022 21.79297,-11.76219 27.43945,-19.45117c22.21671,12.23644 47.94712,11.84991 80.48438,-12.98437c-10.80315,-5.45511 -21.62773,-10.78362 -33.07813,-12.50586c19.82482,-7.61171 29.32765,-18.78077 34.01367,-31.60743c23.0285,14.30487 49.76513,15.29249 84.06446,-10.88671c-9.73511,-4.9158 -19.48738,-9.73402 -29.69922,-11.9004c17.50466,-6.37097 27.30161,-15.39824 32.84765,-25.88867c22.52767,13.01392 48.64459,13.13452 81.85157,-12.21093c-23.7779,-12.00676 -47.65411,-23.4465 -78.10938,3.05664c3.09034,-10.05159 3.58102,-20.99797 3.97461,-31.97852zm-15,25c-9.29458,18.58916 -14.42789,24.36992 -31.14258,41.13086c-0.4679,-0.0505 -0.93611,-0.10298 -1.40625,-0.14063c13.07046,-21.40312 18.43367,-26.87507 32.54883,-40.99023zm52.2793,4.80664c2.37707,0.0159 4.92783,0.0822 7.7207,0.19336c-19.15353,5.54847 -26.53952,7.60643 -51.5293,8.73047c0.20119,-0.43709 0.38211,-0.88071 0.57032,-1.32227c19.61931,-5.65292 27.96423,-7.70402 43.23828,-7.60156zm-85,50c2.37707,0.0159 4.92783,0.0822 7.7207,0.19336c-19.93451,5.77471 -27.00557,7.77529 -54.58008,8.86914c0.0526,-0.15236 0.0952,-0.30813 0.14649,-0.46094c22.23837,-6.43816 30.55106,-8.70998 46.71289,-8.60156zm-57.2793,0.19336c-9.24144,18.48288 -14.36538,24.30049 -30.85156,40.83984c-0.53525,-0.007 -1.0729,-0.00008 -1.61133,0.0117c13.00818,-21.28654 18.37844,-26.76709 32.46289,-40.85154zm-75,45c-9.28727,18.57454 -14.41847,24.36152 -31.10156,41.0918c-0.52079,0.0215 -1.04445,0.0601 -1.56836,0.0996c13.16064,-21.57183 18.51055,-27.03203 32.66992,-41.1914zm47.2793,9.80664c2.37707,0.0159 4.92783,0.0822 7.7207,0.19336c-18.54155,5.37119 -26.0214,7.47382 -49.13867,8.62305c0.41889,-0.68737 0.81397,-1.38301 1.19336,-2.08399c17.57567,-5.02058 25.7207,-6.82972 40.22461,-6.73242zm435.79687,50.19336l4.60742,105l260.64453,0l26.54688,-105l-291.79883,0zm467.70899,71.87109l-2.30469,9.46289c-13.93563,57.21716 -16.33715,109.63622 -11.89649,161.65232c0.99746,11.6837 2.41448,23.3868 4.16602,35.1309l2.11914,14.2109l8.61524,-11.498c21.29782,-28.4219 44.77012,-53.8249 69.99222,-76.6211l2.7832,-2.5156l-1.043,-3.6055c-17.2201,-59.46375 -30.2536,-90.30006 -65.01563,-119.90235l-7.41601,-6.31446zm7.12695,22.38282c26.41369,25.13479 37.62049,51.97746 52.73439,103.68749c-21.3047,19.5174 -41.3226,40.9825 -59.90431,64.4629c-0.85527,-6.8316 -1.62148,-13.6472 -2.20117,-20.4375c-4.08728,-47.8767 -2.1436,-95.76657 9.37109,-147.71289z" fill="black"/>
 </symbol>
 <symbol viewBox="0 0 1300 2000" preserveAspectRatio="none" id="DK5">
  <path id="svg_7" d="m1205,261.18164l0,97.63672m-15,-106.68946l0,115.7422m-15,-17.56056l0,29.9961m0,-89.9004l-0.0001,39.18749m0.0001,-89.90038l0,29.99609m-15,98.6836l0,27.98437m0,-98.00194l0.0001,23.28907m-0.0001,-98.00196l0,27.98437m-15,54.2461l0,8.2539m-624.86554,464.41598c96.2619,-24.13712 164.25725,-47.60786 247.79132,-118.54293l142.39453,0c-156.78693,297.27564 -107.90582,528.8569 -68.79652,765.2537m-315.75817,-617.19511c94.82557,-23.70639 169.08909,-49.27473 253.07032,-118.05859l83.00586,0c-131.84598,281.90144 -89.77828,512.978 -51.06863,736.0453m178.593,6.9c-100.11207,-264.7467 -182.72861,-466.03675 10.68463,-790.00389l31.6074,-52.94141l-289.89258,0l-9.92187,8.75586c-78.34926,69.1317 -127.84875,86.3742 -220.13096,109.72454m505.38411,712.8423c-89.0757,-265.3039 -178.62756,-449.20585 8.7136,-763.00239l58.6973,-98.32031l-354.08397,0l-18.42969,16.25977c-74.36078,65.61245 -115.84262,79.92381 -204.67112,102.39284m-81.03158,-678.64558c36.47083,61.81271 68.47075,122.7886 83.70856,189.99297c220,-50 290,135 490,75c-6.14797,-107.70306 56.1226,-197.85475 111.9664,-265.01835m-497.20769,0.05009c16.72864,41.37822 55.94704,49.64478 55.58106,90.02835c-0.4078,44.99654 -60.97867,44.2242 -60.33467,-0.77016c0.43526,-30.40999 34.90628,-29.55614 34.47696,0.44009c-0.2147,14.99813 -21.76276,14.72308 -21.5481,-0.27504m-23.83799,-89.4109c-17.94981,40.75013 -57.25618,48.05705 -58.04478,88.36569c-0.88018,44.99051 59.69066,45.7645 60.33466,0.77015c0.43527,-30.41 -34.0476,-30.43631 -34.47693,-0.44007c-0.21468,14.99812 21.33342,15.27316 21.54809,0.27504m321.54299,-85.60496c-3.95826,75.05163 63.50376,83.57104 57.93973,133.1765c-5.01372,44.69932 -73.04277,36.17196 -67.76365,-8.49498c3.56795,-30.18868 42.24149,-24.92367 38.72211,4.85427c-1.75972,14.88897 -25.96102,11.85506 -24.20132,-3.03391m-4.69687,-126.50188c-13.63877,73.83807 -81.11528,65.4414 -87.26811,114.97303c-5.5443,44.63282 62.48457,53.16184 67.76365,8.49494c3.56796,-30.18869 -35.20268,-34.6322 -38.7221,-4.85425c-1.75969,14.88897 22.44162,17.92288 24.20131,3.0339m-384.09036,3.74634c218.11561,-28.80389 388.11561,71.19611 523.71911,27.79085m-20.19268,5.32816c6.99728,-12.15271 11.84298,-26.26353 14.58918,-41.9229c8.2712,-0.94453 15.9872,-2.11301 23.2045,-3.47492m-81.71625,50.84911c19.21873,-13.48839 30.89168,-37.15278 31.90284,-75.19532c30.42501,-1.54844 52.50071,-5.64405 69.80531,-11.19519m-586.67731,-9.72856c9.446,5.24149 19.35411,9.27894 29.91392,11.36611c3.98484,11.50305 8.45187,24.99668 17.21275,39.74041c0.76253,1.28327 1.56561,2.56007 2.40931,3.8285m36.57338,-2.29721c-21.40993,-18.82096 -24.13357,-45.13363 -35.89962,-69.78784c-25.03004,2.19191 -54.5511,-18.9457 -83.54589,-45.78921m265.62151,125.38c9.72323,-12.91028 17.51651,-28.17792 22.5967,-45.67567c10.84696,-3.76913 20.57045,-9.54616 28.66027,-16.60397c6.14753,8.85319 14.18715,16.8702 23.79899,23.21925c0.78534,19.91165 5.34936,38.04721 12.74223,53.99236m-29.51099,-148.57538c-9.97961,32.89017 -23.91804,60.70848 -60.00289,62.63477c-4.62937,30.51384 -16.39157,51.69244 -33.04347,66.4588m160.49298,26.22777c-15.84674,-19.38451 -24.21104,-44.72947 -21.01153,-79.26439c-34.67061,-10.87561 -41.41082,-41.52015 -43.14533,-76.06667m-760.25382,733.23751c160.74465,-106.14241 273.81892,-156.12929 405.76484,-201.71554m678.61537,28.43528c58.5556,0 155.0482,48.39296 215.6064,93.99597m-239.3165,-5.45863c113.0963,71.76959 182.6168,159.56987 221.4243,276.26361m-236.754,-250.49914c108.8239,68.97904 172.6262,150.48598 209.0911,262.34741m45.5122,-50.45963c-42.8568,-108.74733 -115.3279,-194.41875 -223.9006,-263.39141m-77.4355,140.10168c94.5834,60.40167 136.8968,120.76076 165.8987,221.53143m-176.06563,-198.46725c89.06273,57.04368 124.76233,109.89846 152.39653,206.61799l1.791,6.26957m-168.83276,-175.02868c78.20346,50.36129 103.12766,90.66162 128.58086,179.74738l5.9889,20.9627m-63.1236,257.0588l3.3378,-9.8242c51.421,-130.6216 135.3498,-196.3419 251.2491,-246.2589m-145.8655,202.4399c35.8119,-56.2116 81.9276,-90.805 145.8142,-120.7726m-186.5255,142.2542c42.7642,-84.6421 101.8335,-131.0659 186.517,-169.5437m-222.025,186.6938c47.6872,-111.379 119.4528,-168.5747 222.0057,-213.8957m-329.04874,147.3178c70.83964,-149.5388 191.11764,-228.61106 329.12894,-282.40702m-318.21614,319.59372c64.31674,-157.148 179.43374,-237.31586 318.25244,-292.74602m-297.7151,355.69992c108.097,-44.3645 209.4748,-97.7156 297.742,-168.6012m-329.81718,66.8542c-13.49084,-48.2508 -23.45105,-95.1341 -27.49619,-142.5171c-9.68778,-113.47839 12.8984,-231.1969 104.56837,-384.74413l58.6973,-98.32032l7.0893,-9.68201m-73.17,847.47336c-19.6674,-59.8732 -42.01691,-121.2993 -58.39794,-173.9602m-458.41789,-426.64561l291.79883,0.00001m-287.19139,105.00002l260.64451,-0.00002m-261.06639,25.00002l256.6953,-0.00002m329.14387,260.2546l20.7305,13.4466m8.6319,-52.2366l18.5101,16.0333m7.8545,-42.9273l16.4611,17.8458m18.9079,-46.5199l14.1,19.8096m17.7159,-40.4383l12.3359,21.0656m30.262,-43.7352l10.5793,22.2621m-193.8269,145.6376l21.8236,11.5782m102.8133,-638.21088l0,-443.86522l80,-80m-40,546.74805l0,-450.17969l39.9995,-39.99853m-80.0176,216.09449c-41.4818,13.3411 -73.3949,53.01101 -99.9819,107.33568c-1.436,-40.36288 -8.3056,-82.08674 20,-115c-16.063,-8.51062 -30.6803,-9.46321 -50,-35c19.3197,-25.53679 33.937,-26.48938 50,-35c-28.3056,-32.91326 -21.436,-74.63712 -20,-115c26.587,54.32467 58.5001,93.99458 99.9819,107.33568m-71.6809,144.09906c0.056,-3.19695 0.1942,-6.27513 0.4412,-9.2238c1.32,-15.75587 4.7198,-26.855 14.0039,-37.65039l24.4941,-28.48243l-33.1953,-17.58789c-8.6379,-4.57661 -14.026,-6.53096 -18.7031,-8.49023c4.6771,-1.95927 10.0652,-3.91362 18.7031,-8.49023l33.1953,-17.58789l-24.4941,-28.48243c-9.2841,-10.79539 -12.6839,-21.89452 -14.0039,-37.65039c-0.247,-2.94867 -0.385,-6.02685 -0.4412,-9.22381m-28.301,-48.56525c-80.2538,116.73042 -51.7455,210.78734 0,300m-411.44136,158.37566a42,42 0 0 1 21.44136,36.62434l0,0a42,42 0 0 1 -42,42a42,42 0 0 1 -41.59831,-36.20511m39.62681,-25.19497a19.5,19.5 0 0 1 1.9715,-0.09992a19.5,19.5 0 0 1 19.5,19.5a19.5,19.5 0 0 1 -19.5,19.5a19.5,19.5 0 0 1 -19.5,-19.5a19.5,19.5 0 0 1 2.09058,-8.7842m126.63799,-56.21929a42,42 0 0 1 2.77143,15.00349a42,42 0 0 1 -42,42a42,42 0 0 1 -41.43645,-35.14286m53.88961,-21.86255a19.5,19.5 0 0 1 7.04684,15.00541a19.5,19.5 0 0 1 -19.5,19.5a19.5,19.5 0 0 1 -19.5,-19.5a19.5,19.5 0 0 1 7.05511,-15.01249m138.23451,0.00218a42,42 0 0 1 1.21038,10.01031a42,42 0 0 1 -42,42a42,42 0 0 1 -42,-42a42,42 0 0 1 1.21089,-10.01241m57.52303,0.001a19.5,19.5 0 0 1 2.76608,10.01141a19.5,19.5 0 0 1 -19.5,19.5a19.5,19.5 0 0 1 -19.5,-19.5a19.5,19.5 0 0 1 2.76669,-10.01231m145.02293,0.002a42,42 0 0 1 1.21038,10.01031a42,42 0 0 1 -42,42a42,42 0 0 1 -42,-42a42,42 0 0 1 1.21089,-10.01241m57.52303,0.001a19.5,19.5 0 0 1 2.76608,10.01141a19.5,19.5 0 0 1 -19.5,19.5a19.5,19.5 0 0 1 -19.5,-19.5a19.5,19.5 0 0 1 2.76669,-10.01231m88.19401,49.77017a42,42 0 0 1 -28.4607,-39.75786a42,42 0 0 1 1.21089,-10.01241m39.37631,29.46116a19.5,19.5 0 0 1 -18.0872,-19.44875a19.5,19.5 0 0 1 2.76669,-10.01231m-38.47274,125.7534a42,42 0 0 1 -31.79395,-40.74109a42,42 0 0 1 42,-42a42,42 0 0 1 28.73891,11.37199m-28.082,50.11694a19.5,19.5 0 0 1 -0.65691,0.01107a19.5,19.5 0 0 1 -19.5,-19.5a19.5,19.5 0 0 1 19.5,-19.5a19.5,19.5 0 0 1 16.78498,9.57456m-60.6197,126.75001a42,42 0 0 1 -38.16528,-41.82457a42,42 0 0 1 42,-42a42,42 0 0 1 28.2289,10.9013m-22.75716,49.81527a19.5,19.5 0 0 1 -5.47174,0.78343a19.5,19.5 0 0 1 -19.5,-19.5a19.5,19.5 0 0 1 19.5,-19.5a19.5,19.5 0 0 1 17.49368,10.88483m-46.75674,130.6087a42,42 0 0 1 -0.73694,0.00647a42,42 0 0 1 -42,-42a42,42 0 0 1 42,-42a42,42 0 0 1 24.63624,7.98448m-17.41646,52.12973a19.5,19.5 0 0 1 -7.21978,1.38579a19.5,19.5 0 0 1 -19.5,-19.5a19.5,19.5 0 0 1 19.5,-19.5a19.5,19.5 0 0 1 16.27796,8.76324m-275.73486,-155.52959a42,42 0 0 1 13.9569,31.26635a42,42 0 0 1 -42,42a42,42 0 0 1 -42,-42a42,42 0 0 1 0.10369,-2.94948m44.81909,-16.33023a19.5,19.5 0 0 1 16.57722,19.27971a19.5,19.5 0 0 1 -19.5,19.5a19.5,19.5 0 0 1 -19.5,-19.5a19.5,19.5 0 0 1 4.1583,-12.03671m-31.95215,10.68698a42,42 0 0 1 9.29385,26.34973a42,42 0 0 1 -42,42a42,42 0 0 1 -15.08264,-2.80161m20.87302,-57.81885a19.5,19.5 0 0 1 13.70962,18.62046a19.5,19.5 0 0 1 -19.5,19.5a19.5,19.5 0 0 1 -19.5,-19.5a19.5,19.5 0 0 1 5.3419,-13.40888m276.31684,-460.17927c-53.58045,131.40402 4.84126,175.79795 4.84126,253.58815c0,55 -115,90 -115,0c0,-55 75,-55 75,-10c0,35 -62.76516,44.8906 -60,10c3.05186,-38.5082 47.48736,-19.35457 35,-5m47.51711,-254.26746c-57.74021,135.59971 -2.03271,172.15783 -2.03271,251.05728c0,55 -85.4844,58.21018 -80.4844,8.21018m70,-265c-61.78804,140.32061 -10,175 -10,255m47.99686,-238.17905c-49.81178,127.23081 7.00314,171.46605 7.00314,248.17905c0,30.82308 -36.11806,55.36475 -67.87165,55.14387m73.91938,-298.24272c-46.34724,123.34432 8.95227,167.41583 8.95227,243.09885c0,30.82308 -36.11806,55.36475 -67.87165,55.14387m72.19501,-293.56093c-43.22103,119.79205 10.67664,163.69948 10.67664,238.41706c0,30.82308 -36.11806,55.36475 -67.87165,55.14387m70.61971,-289.10483c-40.30694,116.43827 12.25194,160.1772 12.25194,233.96096c0,30.82308 -36.11806,55.36475 -67.87165,55.14387m69.33546,-285.32569c-37.88393,113.61554 13.53619,157.20174 13.53619,230.18182c0,30.82308 -36.11806,55.36475 -67.87165,55.14387m68.33436,-282.27555c-35.9616,111.35219 14.53729,154.80831 14.53729,227.13168c0,30.82308 -36.11806,55.36475 -67.87165,55.14387m67.60912,-280.00201c-34.54847,109.67398 15.26253,153.02904 15.26253,224.85814c0,30.82308 -36.11806,55.36475 -67.87165,55.14387m67.15482,-278.54799c-33.65372,108.60473 15.71683,151.8933 15.71683,223.40412c0,30.82308 -36.11806,55.36475 -67.87165,55.14387m66.97193,-277.95576c-33.29132,108.17014 15.89972,151.43119 15.89972,222.81189c0,30.82308 -36.11806,55.36475 -67.87165,55.14387m67.06646,-278.26238c-33.4788,108.39508 15.80519,151.67041 15.80519,223.11851c0,30.82308 -36.11806,55.36475 -67.87165,55.14387m67.45465,-279.51029c-34.2451,109.31203 15.417,152.64477 15.417,224.36642c0,30.82308 -36.11806,55.36475 -67.87165,55.14387m68.16153,-281.73882c-35.62647,110.95531 14.71012,154.38789 14.71012,226.59495c0,30.82308 -36.11806,55.36475 -67.87165,55.14387m69.22463,-284.99274c-37.67264,113.36782 13.64702,156.94012 13.64702,229.84887c0,30.82308 -36.11806,55.36475 -67.87165,55.14387m70.7421,-289.45778c-40.53552,116.70292 12.12955,160.45564 12.12955,234.31391c0,30.82308 -36.11806,55.36475 -67.87165,55.14387m-422.12835,-22.36609c-54.20415,65.72654 -115,47.22222 -115,7.22222c0,-40 65,-45 65,-5c0,30 -45,25 -45,5c0,-10 0,-10 5,-15m70,9.44444c-25.08277,26.79136 -49.17691,31.34092 -67.46305,18.09251m107.46305,-20.31473c-20,40 -57.91528,45.68364 -79.40254,45.12203m99.40254,-43.45536c-20,40 -55.86273,43.19595 -77.34999,42.63434m97.34999,-41.52323c-20,40 -55.86273,42.08484 -77.34999,41.52323m97.34999,-43.1899c-20,40 -55.86273,43.75151 -77.34999,43.1899m97.34999,-44.85656c-20,40 -55.86273,45.41817 -77.34999,44.85656m97.34999,-45.96767c-20,40 -55.86273,46.52928 -77.34999,45.96767m97.34999,-45.41212c-20,40 -55.86273,45.97373 -77.34999,45.41212m97.34999,-46.52323c-20,40 -55.86273,47.08484 -77.34999,46.52323m92.87257,-38.51066c-20.53037,32.95263 -52.90713,39.03249 -72.87257,38.51066m-104.82273,-387.69598c-2.94139,12.08223 -7.82728,32.6778 -7.82728,36.17275c0,5 15,20 15,25c0,5 -25,30 -35,45c-10,15 -25,60 -25,70c0,10 -5,20 10,20c15,0 20,15 20,15l-10,15l10,25c0,0 -1.83772,13.67544 -5,20c-5,10 20,15 20,20c0,5 -20.43692,15.01913 -20,20c3.90773,44.54792 -24.38342,56.24006 -25,50m70,-200c15,0 10,40 -10,30c-30,-15 -45,5 -15,-5m105,35c2.20477,-6.06312 7.38336,-10 15,-10c25,0 10,45 -30,45c-40,0 -85,-35 -85,-35l0,-15c40,15 30,45 85,50m-105,-5c20,0 40,5 60,20c-22.92526,-16.54382 -40,-35 -70,-45m40,-205l-5,15c0,0 45,-5 55,-5c30,0 60,45 95,45c-35,0 -65,-55 -95.29027,-56.16109c-9.99266,-0.38305 -13.61398,9.41945 -33.61398,9.41945c-4.71405,0 -16.09575,-8.25836 -16.09575,-8.25836l0,0m105,80c-30,0 -45.34554,-24.91813 -65,-25c-10.13785,-0.0422 -30,5 -30,5m60.87082,9.64438c15.00195,20.00224 -38.49702,29.42788 -50.87082,15.35562m-305.13069,302.1156c-6.03822,-14.63188 -16.90298,-39.42452 -29.86931,-62.1156c-20,-35 -45,-15 -35,5c10,20 20,35 20,35m-19.70973,-35.06535c-1.68092,-1.02143 -21.22435,-27.47783 -50.29027,-39.93465c-35,-15 -33.23756,7.22236 -10,25c11.23211,8.593 50,65 50,65m-60,-74.70973c-20,-20.29027 -45,-15.29027 -25,14.70973c20,30 55,75 55,75m-55,-75c-15,-20 -30,0 -15,20c18.97367,25.29822 40,80 40,80m-32.96808,-69.41945c-27.03192,-30.58055 -27.96809,1.22644 -17.96809,21.22644c5,10 20.93617,63.19301 25.93617,73.19301l10.70117,21.40234m946.86323,11.46756c4.7228,7.86815 11.4714,18.19567 -8.3426,39.34101c-9.1264,9.73964 -2.6874,24.1805 10.7782,7.78909c20,-35 35,-15 45.124,-20.98813c-2.6894,9.83243 20.2095,20.5981 -10.0912,47.185c-10.0328,8.80313 -5.0328,23.80313 9.9672,8.80313c21.1313,-34.32885 35.4708,-13.85011 45.7847,-19.50475c-3.0087,9.73945 19.5268,21.24648 -11.6252,46.83065c-10.3147,8.47111 -5.8067,23.62626 9.6747,9.12363c29.05,-27.94811 37.8082,-4.53242 49.209,-7.42596c-5.3504,8.67657 13.5882,25.45717 -22.9752,42.43109c-12.1064,5.62018 -11.5346,21.42125 6.0078,12.39993c31.1715,-23.04358 37.0029,1.26683 48.6718,-0.21194c-6.3705,7.95777 10.3757,26.92678 -27.9878,39.30574c-12.7024,4.09875 -14.0656,19.85129 5.6553,12.03573c35.6899,-18.74104 37.5728,6.18798 49.3282,6.58763c-7.5572,6.84089 5.9522,28.23612 -33.8938,34.34339c-13.1932,2.02216 -17.0493,17.35616 3.6651,12.78314m-180.0215,-250.93625c4.5725,14.6211 -28.11348,34.81884 -9.7014,47.17428c20.4797,13.74293 35.3028,-2.51702 53.2083,-19.93631c-14.9048,20.04709 -30.6967,38.70115 -10,55c19.4354,16.73082 36.5198,-2.19539 54.984,-19.02122c-15.5509,19.55013 -29.984,39.02122 -17.5939,56.48001c12.7916,18.0245 38.1415,-0.88827 60.2289,-12.5578c-19.9486,15.03623 -45.2813,28.28577 -32.619,50.09901c12.5467,21.61399 39.1886,10.78859 62.5364,1.90541c-21.6364,12.48599 -43.3689,25.91068 -32.5364,48.09459c10.3717,21.24013 33.2374,11.17453 57.7024,6.12551c-23.9263,7.68906 -52.1643,19.08863 -29.3024,51.67133" fill="none" stroke-width="6" stroke-linejoin="round" stroke-linecap="round" stroke="#44F"/>
 </symbol>
 <symbol viewBox="0 0 1300 2000" preserveAspectRatio="none" id="DK6">
  <path id="svg_8" d="m545,265c2.63987,-9.53087 17.64423,-23.57026 27.90274,-22.03192c18.30415,2.74485 37.09726,37.03192 47.09726,37.03192m10,10c-10,0 -20,10 -20,10m-26.99236,-28.15901c0.35325,1.98028 0.54101,4.05503 0.54101,6.19243c0,13.80712 -7.83502,25 -17.5,25c-9.66498,0 -17.5,-11.19288 -17.5,-25c0,-4.4285 0.80602,-8.58806 2.21992,-12.19562m-429.96614,230.97731c-3.72523,13.38464 -7.11981,15.26559 -16.17249,17.23428m-8.16717,-5.55799c-3.72523,13.38464 -11.32879,13.37882 -20.38146,15.34751m4.12613,6.10386c-3.72523,13.38464 -7.70036,14.1045 -18.20441,13.751m7.5874,14.58715c-5.03146,10.62704 -11.03851,10.47607 -19.65578,9.54203m132.01748,-50.58055c6.22644,15.66034 28.04787,17.7576 28.04787,17.7576m-145,55c4.79698,0.89471 7.93689,-1.11044 10,-5m33.20402,-33.97373c4.79698,0.89471 7.93689,-2.90642 10,-6.79598m-53.20402,45.76971c4.79698,0.89471 7.93689,-1.11044 10,-5m61.02627,-52.30911c4.79698,0.89471 6.65405,-2.64985 8.71716,-6.53941m-61.05706,40.66297c4.79698,0.89471 7.93689,-2.64985 10,-6.53941" fill="none" stroke-width="3" stroke-linejoin="round" stroke-linecap="round" stroke="#44F"/>
  <use id="svg_9" x="0" y="0" transform="matrix(1, 0, 0, 0.972, 590, 941.68)" width="120" height="120" xlink:href="#D"/>
  <use id="svg_10" x="0" y="0" transform="matrix(1, 0, 0, 0.972, 510, 941.68)" width="120" height="120" xlink:href="#D"/>
  <use id="svg_11" x="160.60612" y="-58.40214" stroke-linecap="round" stroke-linejoin="round" stroke-width="42.352" stroke="#44F" transform="rotate(-15, 295.897, 581.579) matrix(1, 0, 0, 0.972, 315, 557.38)" width="170" height="170" xlink:href="#D"/>
  <use id="svg_12" x="127.86108" y="-51.15841" stroke-linecap="round" stroke-linejoin="round" stroke-width="48" stroke="#44F" transform="rotate(-10, 348.116, 705.866) matrix(1, 0, 0, 0.972, 360, 692.1)" width="150" height="150" xlink:href="#D"/>
  <use id="svg_13" x="73.58305" y="-31.06491" stroke-linecap="round" stroke-linejoin="round" stroke-width="55.384" stroke="#44F" transform="rotate(-5, 382.582, 827.567) matrix(1, 0, 0, 0.972, 388, 821.82)" width="130" height="130" xlink:href="#D"/>
  <use id="svg_14" x="0" y="0" stroke-linecap="round" stroke-linejoin="round" stroke-width="65.454" stroke="#44F" transform="matrix(1, 0, 0, 0.972, 405, 928.54)" width="110" height="110" xlink:href="#D"/>
  <use id="svg_15" x="-169.80664" y="88.99097" stroke-linecap="round" stroke-linejoin="round" stroke-width="72" stroke="#44F" transform="rotate(10, 409.442, 1013.7) matrix(1, 0, 0, 0.972, 400, 1021.4)" width="100" height="100" xlink:href="#D"/>
  <use id="svg_16" x="-176.54485" y="1620.07764" transform="rotate(60, 1275.47, 940.25) matrix(1, 0, 0, 0.972, 1214, 956.26)" width="90" height="90" xlink:href="#D"/>
  <use id="svg_17" x="-337.68192" y="1292.79236" transform="rotate(50, 1178.55, 990.378) matrix(1, 0, 0, 0.972, 1128, 1008.26)" width="90" height="90" xlink:href="#D"/>
  <use id="svg_18" x="-425.66232" y="974.54504" transform="rotate(40, 1088.45, 1058.38) matrix(1, 0, 0, 0.972, 1049, 1076.26)" width="90" height="90" xlink:href="#D"/>
  <use id="svg_19" x="-437.76608" y="683.88348" transform="rotate(30, 1021.53, 1149.25) matrix(1, 0, 0, 0.972, 993, 1165.26)" width="90" height="90" xlink:href="#D"/>
 </symbol>
 <g>
  <title>Layer 1</title>
  <g id="svg_42">
   <use transform="matrix(1.46827, 0, 0, 1.30674, -48.351, -50.2261)" id="svg_21" xlink:href="#DK1" y="36.6" x="32.6" height="260.8" width="164.8"/>
   <use id="svg_22" xlink:href="#DK1" y="36.6" x="32.6" height="260.8" width="164.8" transform="matrix(-1.46827, 0, 0, -1.30674, 289.351, 386.226)"/>
   <use transform="matrix(1.46827, 0, 0, 1.30674, -48.351, -50.2261)" id="svg_23" xlink:href="#DK2" y="36.6" x="32.6" height="260.8" width="164.8"/>
   <use id="svg_24" xlink:href="#DK2" y="36.6" x="32.6" height="260.8" width="164.8" transform="matrix(-1.46827, 0, 0, -1.30674, 289.351, 386.226)"/>
   <use transform="matrix(1.46827, 0, 0, 1.30674, -48.351, -50.2261)" id="svg_25" xlink:href="#DK3" y="36.6" x="32.6" height="260.8" width="164.8"/>
   <use id="svg_26" xlink:href="#DK3" y="36.6" x="32.6" height="260.8" width="164.8" transform="matrix(-1.46827, 0, 0, -1.30674, 289.351, 386.226)"/>
   <use transform="matrix(1.46827, 0, 0, 1.30674, -48.351, -50.2261)" id="svg_27" xlink:href="#DK4" y="36.6" x="32.6" height="260.8" width="164.8"/>
   <use id="svg_28" xlink:href="#DK4" y="36.6" x="32.6" height="260.8" width="164.8" transform="matrix(-1.46827, 0, 0, -1.30674, 289.351, 386.226)"/>
   <use transform="matrix(1.46827, 0, 0, 1.30674, -48.351, -50.2261)" id="svg_29" xlink:href="#DK5" y="36.6" x="32.6" height="260.8" width="164.8"/>
   <use id="svg_30" xlink:href="#DK5" y="36.6" x="32.6" height="260.8" width="164.8" transform="matrix(-1.46827, 0, 0, -1.30674, 289.351, 386.226)"/>
   <use transform="matrix(1.46827, 0, 0, 1.30674, -48.351, -50.2261)" id="svg_31" xlink:href="#DK6" y="36.6" x="32.6" height="260.8" width="164.8"/>
   <use id="svg_32" xlink:href="#DK6" y="36.6" x="32.6" height="260.8" width="164.8" transform="matrix(-1.46827, 0, 0, -1.30674, 289.351, 386.226)"/>
  </g>
 </g>
</svg>