<svg width="239.99999999999997" height="336" xmlns="http://www.w3.org/2000/svg" xmlns:xlink="http://www.w3.org/1999/xlink" face="QD" class="card" preserveAspectRatio="none">
 <defs>
  <rect y="-130.4" x="-82.4" height="260.8" width="164.8" id="DQX"/>
 </defs>
 <symbol preserveAspectRatio="xMinYMid" viewBox="-500 -500 1000 1000" id="DQ">
  <path id="svg_1" fill="none" stroke-miterlimit="1.5" stroke-linecap="square" stroke-width="80" d="m-260,100c300,0 220,360 520,360m-435,-460l0,-285a175,175 0 0 1 350,0l0,570a175,175 0 0 1 -350,0l0,-285z"/>
 </symbol>
 <symbol preserveAspectRatio="xMinYMid" viewBox="-600 -600 1200 1200" id="D">
  <path id="svg_2"  d="m-400,0c50,0 400,-450 400,-500c0,50 350,500 400,500c-50,0 -400,450 -400,500c0,-50 -350,-500 -400,-500z"/>
 </symbol>
 <symbol viewBox="0 0 1300 2000" preserveAspectRatio="none" id="DQ1">
  <path id="svg_3" d="m216.55469,0c22.67165,33.81482 49.20422,66.35516 53.93945,105.50781l-25.36328,36.03516l-3.98633,-4.10156c6.32081,-11.19826 5.98002,-26.7756 -9.49023,-42.41407c-32.14605,-32.49557 -85.43261,37.34693 -141.6543,-5.02734c50,50 -6.77613,124.44391 29.75195,149.35547c25.35786,17.29365 44.43314,10.19624 53.54102,-3.55078l3.41015,3.11914c-8.94569,12.7304 -17.89228,25.46116 -26.59179,37.85351c-25.81641,4.595 -50.60108,6.06193 -70.11133,-6.77734c-14.682,26.21157 -45.3019,28.69824 -70,40c61.37558,0.31228 120.48347,3.77189 154.33789,42.28711l247.55469,-352.28711l-195.33789,0zm416.91797,0l8.8164,25.4668c118.34306,161.28227 217.50952,260.56362 234.43164,549.40625l31.29688,25.84765c-12.64804,-321.32324 -123.93717,-431.39456 -247.17969,-600.7207l-27.36523,0zm49.30468,231.1582l-3.29101,51.13477c3.5673,6.09029 7.011,12.23329 10.33008,18.45703c24.30689,45.57873 42.8779,96.272 54.71875,165.25391l34.53711,28.35937c-15.8304,-119.84019 -49.16165,-192.81123 -96.29493,-263.20508zm-402.34961,171.6836l-11.12695,27.95703c90.34691,32.00977 178.35142,53.16306 271.20899,57.44726c-21.40467,-9.81885 -42.85526,-20.98087 -60.50977,-18.24609c-24.28921,3.76254 -48.68239,-9.91497 -69.5,-29.47852c-42.95129,-9.33116 -86.01181,-22.1637 -130.07227,-37.67968zm-11.16601,28.0332c-25.31832,57.42461 -60.68445,102.77408 -102.77539,137.125c116.12879,44.75704 235.19815,76.28584 363.18555,83.34961l-2.2754,-0.01758l101.54688,210.34766l95.98242,-7.36524c-73.62603,12.41954 -154.80419,10.87136 -249.01953,-14.78906l6.0918,32.58984c160.35182,40.14495 287.86396,12.701 399.98828,-33.3125l-10.91797,-27.93945c-46.13159,19.0093 -94.09261,34.63547 -145.76953,43.38867l-97.60352,-202.17773l-4.16015,-0.03125c89.463,-3.60752 183.63485,-19.56901 284.36718,-51.37891l-156.96679,-129.18554l-30.26563,-24.80664c-32.20545,5.73774 -63.26512,9.47478 -93.13476,10.875c-7.87603,11.69236 -16.50014,22.51194 -25.62305,30.9746c40.73292,-0.48642 83.42187,-4.82883 128.13672,-12.99023c-44.72414,8.16964 -87.47564,12.5722 -128.6836,13.49414c-7.45784,6.76841 -14.8792,10.97461 -21.36523,10.97461c-11.7541,0 -25.09716,-5.31033 -38.82422,-11.45312c-93.52223,-4.58599 -181.52795,-25.74014 -271.91406,-57.67188zm869.03518,68.37695c-22.7838,0.7721 -47.8281,39.9668 -8.2969,50.74805c-55,15 15,85 30,30c15,55 85,-15 30,-30c55,-15 -15,-85 -30,-30c-4.2188,-15.46875 -12.7877,-21.05017 -21.7031,-20.74805zm136.1269,104.44532c-23.5865,-0.51377 -39.8102,16.02902 -54.4238,36.30273l15,10c24.2842,-10.69256 46.3348,-22.64813 50,-45c-3.6868,-0.80846 -7.2067,-1.22934 -10.5762,-1.30273zm-221.3847,25.21484c-17.5035,0.05517 -35.1592,7.582 -53.0391,26.08789c39.672,4.95901 54.7529,44.34612 137.9238,20.60156l1.6934,-0.9375c-28.6567,-25.18051 -57.4057,-45.84391 -86.5781,-45.75195zm-27.8907,68.43359l-132.79879,160.21875c20.03645,27.17358 39.69697,49.95433 58.55273,71.45703c-28.95008,43.35509 -45.90234,94.79772 -45.90234,150.97852c-0.00001,95.0742 48.79738,177.6172 123.0527,226.0488l15.6758,10.2227l53.9336,-53.5801c-1.8936,-19.379 -4.1818,-37.4267 -6.9648,-53.875c-4.0392,1.088 -8.0972,1.2952 -12.2364,0.9902c-62.4453,-3.7063 -108.46088,-58.4559 -108.4609,-119.8066c0,-29.304 10.12419,-57.7315 29.36719,-80.127c3.21981,-3.8561 6.96201,-7.1553 10.53321,-10.05073c42.2236,57.38583 74.671,127.70633 87.9824,262.47073l170.7305,-170.8653l15.0254,-14.8925c-0.0075,-0.0406 -0.016,-0.0806 -0.0235,-0.1211l16.3848,-16.3985l0,-0.0078l-16.3867,16.3926c-6.9053,-37.354 -17.9277,-72.609 -39.0684,-101.38868c-17.3971,-23.68336 -41.7628,-42.33757 -74.6836,-53.19531c-5.9235,-4.44324 -15.7151,-8.48799 -29.9004,-11.01563a40,40 0 0 1 -39.1562,39.16992c11.3784,63.7792 53.9497,39.16972 44.1953,5.0293c14.4847,4.13849 27.256,-1.14244 32.2109,-9.46094c22.2125,9.90806 38.5779,24.10661 51.2168,41.3125c14.5321,19.78314 24.0315,44.13154 30.2246,70.37114c-16.8844,-23.3696 -41.2723,-2.4875 -33.6425,24.2168c-18.7158,-5.3474 -34.572,5.0327 -34.543,17.4667c-19.8331,-6.8634 -37.3031,-16.2034 -51.3848,-29.0214c-25.365,-23.0888 -41.3726,-57.8826 -41.1933,-113.77738c0.4435,-1.68467 0.8865,-3.81058 1.3066,-6.14844a40,40 0 0 1 -39.1953,-39.95898a40,40 0 0 1 40,-40a40,40 0 0 1 39.9707,39.19531c63.7792,-11.37838 39.1697,-53.94972 5.0293,-44.19531c9.1389,-31.98628 -27.6585,-55.62112 -41.9883,-4.66211c-6.6042,-30.94608 -16.2172,-61.5275 -33.0722,-87.51172l230.0605,189.56641l0,-38.85156l-274.8516,-226.19532zm-3.7812,52.20118c10.657,7.85003 19.5217,17.0418 27.0605,27.30468c11.3212,15.412 19.5874,33.59538 25.2012,53.59766c-13.2447,-0.55224 -24.066,15.52081 -18.6289,34.55078c-24.1324,-6.89496 -43.5103,12.35652 -30.252,28.36914c-25.78137,-7.16003 -48.30075,-17.67745 -65.66597,-33.48437c-5.60626,-5.10318 -10.7561,-10.77783 -15.37305,-17.13477l77.65822,-93.20312zm212.4785,9.9746l-15.7695,2.19532c13.8007,28.30906 34.2687,51.29953 14.5586,106.33593l12.414,9.6543c12.6916,-33.1171 12.7247,-58.55562 6.7676,-78.83789c-4.6665,-15.88828 -12.0268,-28.08534 -17.9707,-39.34766zm-218.8457,50.47852c-8.2843,0 -15,6.71573 -15,15c0,8.28427 6.7157,15 15,15c8.2843,0 15,-6.71573 15,-15c0,-8.28427 -6.7157,-15 -15,-15zm-78.43945,55.57031c2.88064,3.19835 5.9019,6.23206 9.05859,9.10547c24.94198,22.70376 57.13526,35.16899 92.02926,42.88672c-33.9021,16.09002 -11.727,45.74566 17.3516,37.4375c-6.4935,22.72736 10.2036,41.23809 25.1621,32.34766c4.9164,43.82224 21.2229,75.26874 45.457,97.32814c27.6905,25.2056 64.317,37.791 104.2442,45.1582l36.3476,-36.0254l-141.3828,141.4336c-13.6147,-111.338 -41.9594,-181.0045 -78.5097,-235.68751c-33.3683,-49.92231 -71.29276,-86.37939 -109.75785,-133.98438zm-54.24805,5.42383c-110.83172,43.70534 -240.48243,69.42035 -397.60547,32.62109l0.32422,30.81055c143.122,31.82189 266.35773,13.7646 371.35547,-21.99414l25.92578,-41.4375zm292.6875,134.00586a15,15 0 0 0 -15,15a15,15 0 0 0 15,15a15,15 0 0 0 15,-15a15,15 0 0 0 -15,-15zm-30,130c-8.2843,0 -15,6.7157 -15,15c0,8.2843 6.7157,15 15,15c8.2843,0 15,-6.7157 15,-15c0,-8.2843 -6.7157,-15 -15,-15z" fill="#FC4"/>
 </symbol>
 <symbol viewBox="0 0 1300 2000" preserveAspectRatio="none" id="DQ2">
  <path id="svg_4" d="m411.89258,0l-411.89258,586.15234l0,129.61719l502.97266,-715.76953l-91.08008,0zm230.53125,25.7793c17.7257,51.38025 47.57617,140.11381 47.57617,154.2207c0,13.04885 -4.25628,34.61204 -7.21875,50.98047c47.12978,70.57281 80.46062,143.54262 96.29102,263.38281l97.64843,80.50977c-16.92212,-288.84263 -116.0882,-388.12488 -234.29687,-549.09375zm517.57617,419.2207c-22.7883,0 -45.5736,18.41409 -27.5059,55.24023c10.8008,-3.24044 22.3731,0.93962 27.5059,19.75977c5.1328,-18.82015 16.7051,-23.00021 27.5059,-19.75977c18.0677,-36.82614 -4.7176,-55.24023 -27.5059,-55.24023zm-73.8809,70.96289c-48.3876,-0.40036 -40.3459,93.17196 24.1211,61.54297c-3.2404,-10.80073 0.9397,-22.37309 19.7598,-27.50586c-18.8201,-5.13277 -23.0002,-16.70513 -19.7598,-27.50586c-9.1852,-4.50648 -17.2268,-6.47421 -24.1211,-6.53125zm147.7618,0c-6.8943,0.057 -14.9359,2.02477 -24.1211,6.53125c3.2404,10.80073 -0.9397,22.37309 -19.7598,27.50586c18.8201,5.13277 23.0002,16.70513 19.7598,27.50586c64.467,31.62899 72.5087,-61.94333 24.1211,-61.54297zm-73.8809,17.70117a16.15836,16.33562 0 0 0 -16.1582,16.33594a16.15836,16.33562 0 0 0 16.1582,16.33594a16.15836,16.33562 0 0 0 16.1582,-16.33594a16.15836,16.33562 0 0 0 -16.1582,-16.33594zm0,46.33594c-5.1328,18.82015 -16.7051,23.00021 -27.5059,19.75977c-36.1355,73.65228 91.1473,73.65228 55.0118,0c-10.8008,3.24044 -22.3731,-0.93962 -27.5059,-19.75977zm-277.83203,60.61914c-72.05602,19.59985 -141.37311,32.17803 -208.13867,38.24805l81.15429,169.35742c40.21215,-8.86984 78.64233,-22.01475 115.6875,-37.70313c-7.09129,-22.1183 -10.87109,-45.7823 -10.87109,-70.52148c0,-35.87701 7.94963,-69.49119 22.16797,-99.38086zm-507.36328,20.68555c49.6261,47.83604 85.52831,109.61963 101.19726,178.60547c41.47695,10.93791 80.51216,17.56878 118.21289,20.36328l-86.14257,-180.45313c-45.30176,-3.44975 -89.72371,-9.77155 -133.26758,-18.51562zm725.19531,223.69531a25,25 0 0 0 -25,25a25,25 0 0 0 25,25a25,25 0 0 0 25,-25a25,25 0 0 0 -25,-25zm-62.4473,157.7441c-11.3773,12.652 -17.5527,29.6292 -17.5527,47.2559c0,37.1632 26.9666,67.8498 61.4277,69.7891c-11.1748,-48.2711 -26.0468,-85.329 -43.875,-117.045z" />
 </symbol>
 <symbol viewBox="0 0 1300 2000" preserveAspectRatio="none" id="DQ3">
  <path id="svg_5" d="m664.82422,217.74805l-17.84961,3.0039c-1.75242,4.06968 -2.80274,9.26192 -2.80273,14.91993c0,13.0583 5.59644,23.64453 12.5,23.64453c6.90354,0 12.5,-10.58623 12.5,-23.64453c0,-7.16665 -1.68539,-13.58779 -4.34766,-17.92383zm-152.32422,0.42968a12.5,23.64416 0 0 0 -12.5,23.64454a12.5,23.64416 0 0 0 12.5,23.64453a12.5,23.64416 0 0 0 12.5,-23.64453a12.5,23.64416 0 0 0 -12.5,-23.64454zm-228.76172,175.22852l-3.31055,9.43555c44.06046,15.51598 87.12148,28.34841 130.32032,37.86132l-12.82813,-13.15234c-37.73016,-9.00221 -75.51623,-20.52645 -114.18164,-34.14453zm426.74805,44.89063c-26.24967,4.42617 -51.71568,7.50326 -76.58594,9.32617l-6.7207,10.43359c30.22548,-1.91006 61.28478,-5.64702 93.49023,-11.38476l-10.18359,-8.375zm-573.01563,150.9121c-23.16898,15.07084 -48.00443,27.17872 -73.74218,36.04102l-63.72852,90.54297l0,181.79492l264.23438,-264.15625c-42.96857,-12.69936 -85.19538,-27.60732 -126.76368,-44.22266zm770.64649,11.54493c-29.71154,35.30658 -48.11719,84.65712 -48.11719,139.24609c0,44.17716 12.05469,84.92264 32.36133,117.5918l132.87497,-160.17383l-117.11911,-96.66406zm-346.16016,52.00781l99.92383,208.52734c11.20467,-0.63165 22.4379,-1.55344 32.83984,-2.76367l-99.95312,-205.69336c-10.82499,0.1113 -21.59728,0.0542 -32.81055,-0.0703l0,-0.00001zm-187.16406,8.51953c43.55367,8.76621 87.97841,15.08814 133.48242,18.4707l-133.48242,-18.4707zm220.20703,15.99414a10,10 0 0 1 10,10a10,10 0 0 1 -10,10a10,10 0 0 1 -10,-10a10,10 0 0 1 10,-10zm22.43359,46.68359a10,10 0 0 1 10,10a10,10 0 0 1 -10,10a10,10 0 0 1 -10,-10a10,10 0 0 1 10,-10zm22.43164,46.6836a10,10 0 0 1 10,10a10,10 0 0 1 -10,10a10,10 0 0 1 -10,-10a10,10 0 0 1 10,-10zm22.4336,46.68554a10,10 0 0 1 10,10a10,10 0 0 1 -10,10a10,10 0 0 1 -10,-10a10,10 0 0 1 10,-10zm255.71094,73.76368a7.5,7.5 0 0 0 -7.5,7.5a7.5,7.5 0 0 0 7.5,7.5a7.5,7.5 0 0 0 7.5,-7.5a7.5,7.5 0 0 0 -7.5,-7.5zm17.14843,19.90039l-37.38476,9.44726l-5.10352,10.11524l12.47461,30.42773l-33.97851,17.59961l-3.07422,10.35742l18.10937,31.94335l-29.54687,24.0332l-0.97266,10.6856l24.9375,29.2304l-23.72656,34.4864l1.57812,10.1738l31.50391,24.4707l-15.38477,37.4726l3.91602,9.7129l36.08594,15.8868l-5.52539,41.4179l6.09765,8.3711l38.59571,6.9844l3.01367,40.1621l6.78125,6.9063l47.52731,4.4453l-2.6582,25.4375l16.752,-15.9746l1.6133,-15.4434l-6.7618,-8.2461l-48.76949,-4.5625l-2.97461,-39.6328l-6.14258,-6.8184l-37.25976,-6.7422l5.32422,-39.9062l-4.41211,-7.8555l-34.54883,-15.2109l14.77148,-35.9805l-2.33789,-8.7715l-30.41601,-23.6269l22.97656,-33.3965l-0.47461,-9.1172l-23.6875,-27.7676l28.50781,-23.1875l1.79297,-9.5175l-17.39453,-30.68364l33.1543,-17.17188l3.48828,-9.5039l-11.79688,-28.7793l33.36524,-8.43164c1.21493,-0.28955 2.29559,-0.86349 3.18359,-1.63672l-11.21875,-11.80273zm-49.99023,36.95508a7.5,7.5 0 0 0 -7.5,7.5a7.5,7.5 0 0 0 7.5,7.5a7.5,7.5 0 0 0 7.5,-7.5a7.5,7.5 0 0 0 -7.5,-7.5zm-19.29297,62.19143a7.5,7.5 0 0 0 -7.5,7.5a7.5,7.5 0 0 0 7.5,7.5a7.5,7.5 0 0 0 7.5,-7.5a7.5,7.5 0 0 0 -7.5,-7.5zm-5.54297,67.3242a7.5,7.5 0 0 0 -7.5,7.5a7.5,7.5 0 0 0 7.5,7.5a7.5,7.5 0 0 0 7.5,-7.5a7.5,7.5 0 0 0 -7.5,-7.5zm9.85352,73.8926a7.5,7.5 0 0 0 -7.5,7.5a7.5,7.5 0 0 0 7.5,7.5a7.5,7.5 0 0 0 7.5,-7.5a7.5,7.5 0 0 0 -7.5,-7.5zm27.09375,69.7851a7.5,7.5 0 0 0 -7.5,7.5a7.5,7.5 0 0 0 7.5,7.5a7.5,7.5 0 0 0 7.5,-7.5a7.5,7.5 0 0 0 -7.5,-7.5zm41.66601,58.9082a7.5,7.5 0 0 0 -7.5,7.5a7.5,7.5 0 0 0 7.5,7.5a7.5,7.5 0 0 0 7.5,-7.5a7.5,7.5 0 0 0 -7.5,-7.5zm58.08594,52.1348a7.5,7.5 0 0 0 -7.5,7.5a7.5,7.5 0 0 0 7.5,7.5a7.5,7.5 0 0 0 7.49995,-7.5a7.5,7.5 0 0 0 -7.49995,-7.5z" fill="#44F"/>
 </symbol>
 <symbol viewBox="0 0 1300 2000" preserveAspectRatio="none" id="DQ4">
  <path id="svg_6" d="m1025.5147,697.64728l-25.2799,-20.36817c-10.28251,12.49959 -20.2348,35.10443 -20.2348,62.72089c0,3.9216 0.19511,7.74401 0.68552,11.31555l44.82918,-53.66827zm-91.73143,110.08989c-8.58646,-19.60633 -13.78327,-42.73181 -13.78327,-67.73717c0,-41.10271 14.17944,-77.0794 34.05469,-100.79883l-22.9961,-19.26953c-24.76752,29.55795 -41.05859,72.22252 -41.05859,120.06836c0,34.74556 8.55613,66.77026 22.76128,93.01148m-30.24464,-193.40459c-72.40447,20.61225 -141.72089,33.1906 -208.48646,39.26062l81.55838,169.1255l-30.2734,6.29279l-97.43746,-202.30827c88.30614,-4.06982 180.99855,-20.04203 280.02469,-51.31314m-313.01319,259.65873l-86.81606,-180.50301c-45.30176,-3.44975 -89.72554,-9.77216 -133.16697,-18.41743c-16.41096,-15.82699 -34.45824,-30.22409 -53.42716,-42.80855c66.75224,17.08229 134.81586,28.60075 205.74881,32.70122l102.10372,210.46884c-11.04049,-0.0306 -22.66475,-0.50875 -34.44234,-1.44107zm287.42425,10.67041c-110.83172,43.70534 -240.48393,69.4213 -397.60697,32.62204l-2.70748,-31.50036c160.35182,40.14495 287.86269,12.70114 399.98701,-33.31236l10.34109,18.76083l-10.01365,13.42985zm-882.96205,69.65507l321.91406,-322.16652c-52.74916,-13.60059 -104.25814,-30.60845 -155.12759,-50.19917c-8.86925,7.21776 -18.12763,13.97721 -28.23467,20.64417c41.13628,16.89795 83.36201,31.80537 126.33058,44.50473l-264.54355,264.45218m318.97631,-765.21807l-8.66654,-47.66592l45,-5l-5,-50l44.26751,-4.91861m-120.0761,170.87564l-9.19141,-45.95703l47.56263,-8.64775m-78.11475,111.16323l-9.44788,-42.51548l45.75383,-9.15077m-71.39205,101.59791l-9.36178,-37.44714l42.27725,-9.39494m-68.12024,96.94028l-14.15701,-42.54534l47.38281,-4.73828m463.18072,91.30359c4.3867,-10.10851 7.592,-19.18743 9.43647,-26.56531c6.01015,-24.04061 8.40811,-58.91781 9.42528,-86.39957c3.62771,4.78345 7.07205,10.92583 10.39113,17.14957c24.30689,45.57873 42.87813,96.27209 53.03429,163.90859l-82.28717,-68.09328z" fill="black"/>
 </symbol>
 <symbol viewBox="0 0 1300 2000" preserveAspectRatio="none" id="DQ5">
  <path id="svg_7" d="m485.03158,934.42498c143.122,31.82189 266.35778,13.76468 371.35552,-21.99406m-371.68062,-8.81535c157.12304,36.79926 286.77525,11.0833 397.60697,-32.62204m-374.44255,-191.10622l87.07686,180.37349m160.6408,-12.26779l-81.54164,-168.90769m218.32468,178.53408c-20.31785,-32.69622 -32.3716,-73.44223 -32.3716,-117.61939c0,-54.58897 18.40502,-103.93886 48.06483,-139.33534m189.59757,662.02663c-23.9305,-244.9014 -111.05785,-277.29624 -205.31322,-405.12603l132.97212,-159.9126m274.6787,225.87672l-639.63354,-526.75701m-338.90915,221.77032l-320.66913,320.66912m320.32626,-320.64312c98.70528,64.3786 163.88557,175.3411 163.88556,301.4313c0,83.9443 -28.88925,161.1837 -77.3271,222.4363m-241.6349,-574.08729c222.81109,85.35138 455.93513,122.60795 741.86439,32.31538m-233.88894,77.98531c66.7823,-5.85221 136.09872,-18.43056 208.50319,-39.04281m-507.72271,21.67485c43.55367,8.76621 87.97745,15.08862 133.48146,18.47118m-370.96948,-90.40039c41.73357,16.4725 83.9593,31.37992 126.89836,44.20017m615.88401,-55.72648c-264.41111,78.94399 -479.53168,46.18902 -688.84653,-31.99449m646.67791,-2.76909c-234.36537,63.5278 -424.86994,35.56632 -614.92509,-33.43373m586.31968,9.92209c-215.42755,54.10103 -390.78348,28.35708 -568.54766,-35.35076m539.5806,11.50391c-197.22169,45.28744 -358.29833,21.16293 -524.18738,-37.80415m284.95463,30.68728c-93.46131,-4.62636 -181.46756,-25.77957 -271.81447,-57.78934m481.63585,40.68049c-52.35787,10.78978 -101.99097,16.48181 -149.86263,17.77681m-73.67654,162.07629l101.5475,210.34839m96.37101,-7.39412l-97.61976,-202.21236m-66.24274,0.79474l100.64961,208.48849m31.96405,-2.79266l-99.31297,-205.71973m-118.84665,186.68186c160.52552,43.72061 283.21622,17.46565 395.16135,-28.66323m-389.06905,61.2523c160.35182,40.14495 287.86269,12.70114 399.98701,-33.31236m-881.98615,-123.03341l502.97298,-715.76925m-195.13699,277.85688c-19.15405,191.72719 -120.84317,304.12703 -244.15075,347.62421m418.57196,339.0487c58.99882,12.80161 114.94462,17.45078 167.74985,16.06718m-165.84923,-36.12425c58.49244,12.89853 113.77543,17.57368 165.89044,16.17753m-166.67364,-6.11332c58.68418,12.82399 114.24447,17.47795 166.65653,16.09139m-169.13421,3.83718c59.41682,12.8315 115.83945,17.49819 169.11944,16.12003m-0.02323,28.81708c-68.59965,1.7975 -131.89902,13.7763 -189.70618,31.2892m18.90431,-66.3648c59.96512,12.91581 116.97404,17.6217 170.82327,16.2467m-0.02882,-1.14778c-65.25657,1.66638 -125.87293,12.26298 -181.48692,28.00128m181.45317,11.9222c-72.95114,1.9543 -139.69471,15.8052 -200.3445,35.6497m200.36161,-45.6278c-70.62493,1.8684 -135.53349,14.7048 -194.66613,33.299m194.6809,-53.2562c-66.82646,1.7285 -128.70906,12.9665 -185.35488,29.531m12.64566,-44.80119c16.69905,3.59241 33.17656,6.55709 49.42678,8.93839m0.55838,-0.0334c-18.98768,3.7396 -37.47323,8.138 -55.44302,13.0716m508.7432,-264.67022c-0.36473,-3.70647 -0.55984,-7.52888 -0.55984,-11.45048c0,-27.61646 9.95229,-50.2213 20.043,-62.26367m-66.25973,130.00084c-8.58646,-19.60633 -13.78327,-42.73181 -13.78327,-67.73717c0,-41.10271 14.17944,-77.0794 34.05469,-100.79883m-41.29341,193.81031c-14.20515,-26.24122 -22.76128,-58.26592 -22.76128,-93.01148c0,-47.84584 16.29107,-90.51041 41.05859,-120.06836m193.76871,615.31006c-13.6147,-111.338 -41.9586,-181.004 -78.5089,-235.68701c-35.0498,-52.43804 -75.12401,-89.99155 -115.57426,-141.24414l98.83786,-118.86005m0.1142,0.33891l270.3038,222.60317m-234.5938,332.20122l-20.9648,-13.6739c-66.10545,-43.116 -109.44141,-116.1844 -109.4414,-200.9199c0,-47.1817 13.33289,-90.31613 36.64777,-127.13443m72.08013,363.40683l-15.6752,-10.2236c-74.25538,-48.4316 -123.05271,-130.9746 -123.0527,-226.0488c0,-56.1874 16.95622,-107.635 46.22992,-150.684m49.14268,430.3117l-5.09721,-3.325c-90.55532,-59.0629 -150.2754,-160.5512 -150.27539,-276.3027c0,-74.3601 24.61207,-142.69129 66.25403,-197.86726m170.16897,277.76116a65,70 0 0 1 -61.423,-69.8939a65,70 0 0 1 17.2914,-47.5421m58.5998,-287.50965c2.9453,-15.55782 13.3804,-62.44754 34.1088,-74.94825c25.8422,-15.58472 34.7227,-11.66816 62.0363,-30.6826c31.5804,-21.98475 61.1325,0.18596 20,25c-34.4892,20.80636 -32.0363,15.6826 -47.0363,20.6826c15,35 10,60 -10,70m75,-82.42391c44.0224,-16.04252 67.8996,3.1383 10,22.42391c-82.8831,27.60727 -70.7182,-0.29718 -10,-22.42391l0,0m1.7243,-28.19675c39.5361,-13.04311 58.9983,5.44577 5.1115,24.03198c-28.2551,9.74552 -45.0721,12.57356 -52.426,11.18018m52.2578,16.39591c42.5132,-16.04252 65.5718,3.1383 9.6572,22.42391c-80.0415,27.60727 -68.2937,-0.29718 -9.6572,-22.42391l0,0m9.9539,23.80112c38.2905,-14.16582 57.6795,5.99876 7.4085,22.8183c-71.9628,24.07711 -60.2208,-3.28001 -7.4085,-22.8183l0,0m-3.824,46.31563c9.1591,-9.43695 15.7422,-18.44975 17.2025,-25.6478m-79.7611,74.44538c14.7069,-9.09632 34.5296,-23.21383 50.7715,-37.60398m-12.9344,-25.58094c13.8007,28.30906 34.2697,51.29962 14.5596,106.33602m12.4137,9.65339c12.6916,-33.1171 12.7242,-58.55482 6.7671,-78.83709c-4.6665,-15.88828 -12.0275,-28.08515 -17.9714,-39.34747m-73.845,-239.52167c-15,-55 -85,15 -30,30c-55,15 15,85 30,30c15,55 85,-15 30,-30c55,-15 -15,-85 -30,-30l0,0m16.1584,30a16.15836,16.33562 0 0 1 -16.1583,16.33562a16.15836,16.33562 0 0 1 -16.1584,-16.33562a16.15836,16.33562 0 0 1 16.1584,-16.33562a16.15836,16.33562 0 0 1 16.1583,16.33562l0,0m-43.6253,-49.6755c-36.2897,-73.766 91.2235,-73.766 54.9338,0m22.2086,22.20855c73.766,-36.2896 73.766,91.2235 0,54.9339m-22.2086,22.20855c36.2897,73.766 -91.2235,73.766 -54.9338,0m-22.2086,-22.20855c-73.766,36.2896 -73.766,-91.2235 0,-54.9339m19.6755,27.46695l-45,0m5,0a5,5 0 0 1 -5,5a5,5 0 0 1 -5,-5a5,5 0 0 1 5,-5a5,5 0 0 1 5,5l0,0m70,-30l0,-45m0,5a5,5 0 0 1 -5,-5a5,5 0 0 1 5,-5a5,5 0 0 1 5,5a5,5 0 0 1 -5,5l0,0m30,70l45,0m-5,0a5,5 0 0 1 5,-5a5,5 0 0 1 5,5a5,5 0 0 1 -5,5a5,5 0 0 1 -5,-5l0,0m-70,30l0,45m0,-5a5,5 0 0 1 5,5a5,5 0 0 1 -5,5a5,5 0 0 1 -5,-5a5,5 0 0 1 5,-5l0,0m11.4824,-81.48242l13.5176,-13.51758m5,0a5,5 0 0 1 -5,5a5,5 0 0 1 -5,-5a5,5 0 0 1 5,-5a5,5 0 0 1 5,5l0,0m-18.5215,36.4785l13.5215,13.5215m0,5a5,5 0 0 1 -5,-5a5,5 0 0 1 5,-5a5,5 0 0 1 5,5a5,5 0 0 1 -5,5l0,0m-36.4786,-41.47853l-13.5214,-13.52147m-5,0a5,5 0 0 0 5,5a5,5 0 0 0 5,-5a5,5 0 0 0 -5,-5a5,5 0 0 0 -5,5l0,0m18.5176,36.48242l-13.5176,13.51758m0,5a5,5 0 0 0 5,-5a5,5 0 0 0 -5,-5a5,5 0 0 0 -5,5a5,5 0 0 0 5,5l0,0m35.154,73.59002l3.9163,6.52717m11.8842,-15.19304l3.6027,6.00443m-50.0516,23.78527c-31.7282,-18.29896 -66.6328,-26.31222 -104.5056,-24.71385m104.6173,24.66345c-45.8507,-40.28882 -91.9375,-69.0125 -139.6173,-19.66345c39.672,4.95901 54.7524,44.34643 137.9233,20.60187m82.0767,-35.60187c16.7012,-23.16996 35.5056,-41.46768 65,-35c-3.6652,22.35187 -25.7158,34.30744 -50,45m-574.03796,-649.81931c123.19457,169.23237 234.41199,279.32144 247.0559,600.53996m-265.72866,-575.25465c118.34306,161.28227 217.51012,260.56461 234.43224,549.40724m-193.94421,-343.71453c47.13328,70.39385 80.46535,143.36467 96.29575,263.20486m-99.58737,-212.06998c3.5673,6.09029 7.01164,12.23267 10.33072,18.45641c24.30689,45.57873 42.87813,96.27209 54.71898,165.254m-744.53495,120.14923l411.89143,-586.1532m219.56913,-5.84444c9.18256,26.17424 58.539,167.70487 58.539,185.84441c0,20 -10,60 -10,70c0,10 0,80 -10,120c-10,40 -60,130 -90,130c-30,0 -70.35359,-34.5924 -100,-30c-70.89083,10.98139 -142.66891,-126.59772 -130,-130c0,0 -5.34683,10.75511 -10,10c-17.89028,-2.90319 -28.81136,-31.8408 -34.62511,-54.08689m-141.21788,56.63223c-33.67277,-38.7735 -92.78143,-42.23306 -154.15701,-42.54534c24.6981,-11.30176 55.318,-13.78843 70,-40c19.51025,12.83927 44.29527,11.37142 70.35785,6.43837m-32.46317,46.17305c75.56676,-107.53732 151.13352,-215.07464 226.70029,-322.61196m-226.70029,322.61196l0,0m-67.69778,-11.41636c1.4588,-0.57067 2.9248,-1.16416 4.3949,-1.7849c10.37459,-4.38067 21.25112,-10.63365 30.03125,-20.34571c17.08667,6.83797 35.60615,6.88537 53.74626,4.51384m-48.36931,-203.57829c50,50 -6.77585,124.44424 29.75223,149.3558c50.52173,34.455 76.10175,-27.91411 47.6115,-46.77899c-26.00648,-17.22025 -48.13548,19.14464 -27.36373,27.42319c13.52517,5.39043 20,0 20,-10m-70,-120c56.22169,42.37427 109.50883,-27.46879 141.65487,5.0268c36.77881,37.17871 -11.95773,74.01184 -32.40868,52.4797c-22.33086,-23.51142 11.17071,-52.63389 23.49932,-31.0373c8.02755,14.06227 -0.29378,19.99093 -9.89974,16.87473m-22.84577,86.65607c17.04059,-28.96533 -18.4979,-48.18134 -40,-70c27.14758,10.56768 55.14236,33.87982 80,10m40.12198,-53.90556c-4.39388,-39.66846 -30.88664,-72.2398 -53.54848,-106.04145m65.77132,88.56646c-8.10275,-33.76935 -29.14349,-62.07857 -47.63446,-88.7006m83.95618,132.74707l-8.66654,-47.66592l45,-5l-5,-50l44.26751,-4.91861m-120.0761,170.87564l-9.19141,-45.95703l47.56263,-8.64775m-78.11475,111.16323l-9.44788,-42.51548l45.75383,-9.15077m-71.39205,101.59791l-9.36178,-37.44714l42.27725,-9.39494m-68.12024,96.94028l-14.15701,-42.54534l47.38281,-4.73828m-33.2258,47.28362l0,0m249.72965,-225.58344c81.19503,-20.04405 121.83886,-71.67851 157.84743,-126.92395m-54.16365,0.02988c-16.36964,23.32453 -33.16385,42.9828 -55.43708,58.05095m73.58282,-58.03608c-24.79998,36.44513 -50.7536,66.71134 -92.7304,85.51666m110.77901,-85.52702c-31.09297,46.79049 -64.663,87.32203 -126.32226,107.4559m243.27381,2.95271c-42.55272,-27.18456 -70.09462,-67.63373 -94.95697,-110.45075m52.70645,0.04221c3.46246,5.46888 6.95803,10.74448 10.53704,15.81638m-28.19121,-15.76385c12.79179,20.95196 26.05138,39.93439 41.9235,56.08309m-59.44261,-56.02799c19.56756,32.94338 40.44676,62.82239 69.3251,85.44942m-322.61764,179.37054c10,55 -15,45 0,25m85,-90c32.57023,-21.83347 65.33389,-43.27456 130,0c-2.10123,-1.04787 2.38751,5.29878 0.44706,3.98575c-35.44706,-23.98575 -79.67711,-35.78023 -130.44706,-3.98575l0,0m180,-5c31.43942,-37.47882 60,-20 85,-10c-25,-5 -60,-20 -85,15l0,-5l0,0m0,0c-10,90 20.91232,95.60816 20,150c0,10 -30,5 -30,20m-35,-45c-21.32172,0.13819 -52.19824,34.45012 -10,35c7.17243,0.0935 17.26144,-10.36646 22.04093,-10.04518c38.61789,2.59586 -0.87669,5.27919 -12.04093,5.04518m-35,40l0,10l5,-5l-5,-5l0,0m105,0l0,10l-5,-5l5,-5l0,0m-5,5c-5,0 -25,-5 -30,-5c-5,0 -10,5 -15,5c-5,0 -15,-5 -20,-5c0,0 5,0 0,0c-5,0 -20,5 -30,5m30,20c5,15 40,15 40,0m-165,-170c28.54448,10.01655 49.29749,-25 75,-25c30,0 44.73189,33.14076 50,30m-95,-10c22.44363,55 85,0 95,10m125,-25c-32.58064,-22.58411 -65,15 -80,20c15,0 65,35 77.77731,-13.84129m-333.59832,110.357c-0.0904,-0.0285 -0.18069,-0.0571 -0.27105,-0.0857m1.79544,11.03217c-2.86788,-0.89247 -5.74221,-1.79918 -8.62352,-2.71994m68.6675,90.9609c-43.19884,-9.51292 -86.25868,-22.3457 -130.31914,-37.86168m38.58329,-71.2791c-5.28878,-1.81429 -10.60792,-3.67332 -15.96073,-5.57603m28.69821,20.40474c-10.57285,-3.47971 -21.24694,-7.14358 -32.04782,-10.98287m55.83774,28.98505c-19.18355,-5.81079 -38.60932,-12.26005 -58.42685,-19.29306m64.7139,31.58371c-22.01927,-6.44924 -44.29516,-13.74304 -67.04148,-21.79758m74.3844,34.28755c-25.25086,-7.10842 -50.75788,-15.33229 -76.82476,-24.54405m85.16653,37.1821c-28.90431,-7.76992 -58.04044,-17.00757 -87.83552,-27.5206m97.26299,40.29025c-33.02262,-8.4104 -66.21639,-18.74429 -100.17572,-30.71434m111.15809,43.68271c-37.73016,-9.00221 -75.51648,-20.52604 -114.18189,-34.14412m436.93224,53.26573c-32.20545,5.73775 -63.26597,9.4751 -93.49145,11.38516m41.8624,-53.99159c-4.15804,0.5256 -8.29465,1.0148 -12.41092,1.46804m23.03494,7.19033c-9.52249,1.31267 -18.93452,2.43817 -28.24793,3.38148m38.53887,5.22844c-14.8728,2.2081 -29.48172,3.96795 -43.86771,5.298m54.3815,3.18675c-20.59349,3.27432 -40.69267,5.70423 -60.39608,7.33737m70.41276,1.14231c-26.24967,4.42618 -51.71709,7.50266 -76.58735,9.32557m-423.33972,105.14013l15.02011,-46.5623m70.86304,-66.17783l-44.98125,126.76535m80.30304,-115.64634l-37.41589,128.877m77.57508,-117.71658l-32.47414,129.89661m68.8604,-121.38695l-20.68051,132.35534m44.37973,8.18719c4.3371,-43.8719 6.40699,-90.011 10.62017,-134.00682m32.88286,139.70451l3.83102,-134.08592m40.24374,138.00978l-3.94761,-134.21875m47.89791,136.17956l-15.96777,-131.73424m58.67867,131.64826l-26.88317,-122.89446m72.41519,120.678l-45.25494,-131.65072m83.50319,128.17408l-50.29844,-129.93765m96.05111,123.74009l-59.41613,-127.32027m106.10876,118.81672l-73.98995,-123.31658m127.93377,110.78502l-98.80752,-115.99144m-491.65059,-108.18277c1.54975,37.59103 -1.76681,78.67292 -6.76412,120.9605m21.89413,-142.46013c1.2114,36.59137 -2.04373,76.38684 -6.8769,117.31429m21.83245,-138.59989c1.17666,32.63688 -1.24171,67.85269 -5.1928,104.16801m-41.30529,-38.01205c1.68233,37.378 -1.51647,78.25761 -6.44048,120.37447m-8.50506,-99.12239c1.53279,36.48035 -1.53138,76.25834 -6.27616,117.24195m-8.67161,-95.95223c1.35386,34.73352 -1.41091,72.42157 -5.79317,111.26993m-9.15849,-89.98007c1.16759,32.44986 -1.21776,67.44845 -5.1293,103.54186m-9.82368,-82.17528c0.97587,29.7057 -0.98897,61.52094 -4.34988,94.33766m-10.77863,-72.82381c1.07928,26.37005 -0.2334,54.45597 -2.83905,83.46942m-12.31666,-61.92514c1.11201,22.5837 0.41353,46.46616 -1.39304,71.14352m-13.54832,-49.91528c0.86943,18.79858 0.49838,38.48702 -0.71056,58.77653m-17.70532,-32.57573c0.4388,13.77958 0.24738,28.01124 -0.42041,42.58464m-14.54002,-21.28201c0.26622,9.20636 0.25442,18.61216 0.01022,28.18467m199.84142,-312.56353c0.94371,24.24581 -0.11906,49.93097 -2.33766,76.44526m809.00076,884.5147c-23.9305,-244.9014 -111.05785,-277.29624 -205.31322,-405.12603l132.97212,-159.9126m8.653,435.71113l-58.09149,42.5678c-8.06399,7.6989 -8.27681,20.5048 -0.47312,28.4675c7.80369,7.9626 20.61125,8.008 28.47121,0.1009l48.1684,-54.1611m-35.3565,-140.9891l-31.07561,-22.70918c-3.22059,-2.42382 -7.09834,-3.81807 -11.125,-4c-8.86586,-0.4018 -16.9363,5.08651 -19.82127,13.47947c-2.88497,8.39301 0.1055,17.68331 7.3447,22.81741l64.79098,39.8776m0,0l-59.60152,-27.5397c-1.91289,-0.5963 -3.90452,-0.9018 -5.9082,-0.9063c-9.99821,-0.022 -18.47691,7.3422 -19.85499,17.245c-1.37809,9.9028 4.76778,19.3022 14.39209,22.0109l64.38182,14.6752m0,0l-61.16892,-4.6403c-11.11403,0.6676 -19.54365,10.2821 -18.75212,21.388c0.79153,11.1059 10.49949,19.4277 21.59586,18.5123l60.53068,-10.6327m0,0l-61.28458,15.9827c-10.33199,4.2161 -15.21595,16.0712 -10.85201,26.3416c4.36393,10.2704 16.28787,14.9837 26.49459,10.4728l57.195,-28.3608m18.075,16.9751l-46.8208,73.9267c-4.8138,10.0679 -0.458,22.1278 9.6783,26.796c10.1363,4.6682 22.1321,0.1389 26.6537,-10.0636l29.2862,-82.6776m0,0l-25.1729,104.7753c-1.4688,11.0677 6.4073,21.1951 17.4958,22.497c11.0886,1.3018 21.0962,-6.726 22.2308,-17.8329l6.3245,-53.8874m53.2751,-258.8724c10,35 -35,60 -45,-10c-10,70 -55,45 -45,10c-35,10 -60,-35 10,-45c-70,-10 -45,-55 -10,-45c-10,-35 35,-60 45,10c10,-70 55,-45 45,-10c35,-10 60,35 -10,45c70,10 45,55 10,45l0,0m125.0102,136.4402c-10,-70 -55,-45 -45,-10c-35,-10 -60,35 10,45m-44.5139,-27.4443c-19.8621,-6.9528 -37.3326,-16.2931 -51.4143,-29.1111c-25.365,-23.0888 -41.3725,-57.8826 -41.0704,-114.58192m-18.1366,32.13371c5.2044,43.73331 21.51,75.17981 45.7441,97.23921c27.6905,25.2056 64.3174,37.7916 104.2446,45.1588m53.7743,-53.2991c-6.9037,-37.4041 -17.9269,-72.7094 -39.0931,-101.52378c-17.3971,-23.68336 -41.7632,-42.33819 -75.1124,-53.48035m7.6999,24.0108c22.292,9.90447 38.6564,24.1035 51.2953,41.30939c14.5321,19.78314 24.032,44.13144 30.6785,71.04864m-322.71128,-192.51216c2.93009,3.26584 6.0073,6.3595 9.22422,9.28774c24.94198,22.70376 57.13436,35.16872 92.45836,42.80357m-13.3094,-23.99525c-25.80202,-7.27415 -48.32085,-17.79241 -65.68607,-33.59933c-5.6113,-5.10776 -10.76466,-10.78836 -15.3848,-17.15223m77.56787,-93.26244c10.7027,7.86656 19.5996,17.08568 27.1626,27.38146c11.3212,15.412 19.5883,33.5947 25.8314,53.60423m28.4607,31.24463c-6.3141,-32.31797 -15.9312,-62.90998 -32.7963,-88.89958m-39.9235,52.19916a15,15 0 0 1 -15,15a15,15 0 0 1 -15,-15a15,15 0 0 1 15,-15a15,15 0 0 1 15,15l0,0m160,195a15,15 0 0 1 -15,15a15,15 0 0 1 -15,-15a15,15 0 0 1 15,-15a15,15 0 0 1 15,15l0,0m-30,130a15,15 0 0 1 -15,15a15,15 0 0 1 -15,-15a15,15 0 0 1 15,-15a15,15 0 0 1 15,15l0,0m70.8592,-24.3414l-3.2617,3.7129m40.8087,-46.4532l-37.547,42.7403m50.9885,-58.041l-13.4415,15.3007m31.5943,-35.9644l-18.1528,20.6637m-71.0372,58.1351l-87.4292,99.5221m176.618,-201.0472l-22.2579,25.3365m-83.0734,71.8361l-74.1171,84.3689m136.4507,-155.3241l-2.1246,2.4184m45.1224,-51.3636l-27.2209,30.986m-134.8262,130.7474l-20.608,23.4584m61.9133,-70.477l-22.0502,25.1001m67.1289,-76.4138l-13.6078,15.4898m41.1154,-46.8024l-11.8403,13.4781m59.9962,-68.29459l-33.032,37.60079m-136.9452,133.1591l-16.3141,18.5708m50.9549,-58.0028l-22.0504,25.1002m103.2133,-117.4893l-67.2783,76.5841m118.2158,-134.56711l-36.4903,41.53751m-109.3172,101.7099l-41.3048,47.018m129.0598,-146.9108l-74.2211,84.487m120.6893,-137.38259l-32.5353,37.03544m-114.4369,107.53765l-33.0092,37.5749m125.2329,-142.55467l-78.9384,89.85687m122.1018,-138.99041l-29.5904,33.68319m-117.5256,111.05372l-26.2691,29.9026m70.9788,-80.7963l-31.513,35.8718m81.28,-92.52251l-32.0719,36.50801m73.1261,-83.24068l-27.7361,31.57237m-118.3878,112.03511l-20.9513,23.8493m65.5878,-74.6597l-31.3393,35.674m81.2945,-92.53864l-33.4814,38.11224m73.4293,-83.58566l-26.8573,30.57211m-117.056,110.51905l-17.5491,19.9764m109.7562,-124.93747l-78.614,89.48777m118.7349,-135.158l-27.031,30.76981m-113.4671,106.43389l-15.566,17.7191m102.9579,-117.19872l-73.2506,83.38242m114.7717,-130.64659l-28.2988,32.213m-107.5291,99.67459l-15.5277,17.6754m55.4282,-63.09476l-24.9228,28.37006m53.9915,-61.4594l-14.9441,17.011m70.2187,-79.93107l-30.5492,34.77474m-99.2965,90.30303l-17.1334,19.5033m46.9392,-53.43167l-13.6854,15.57825m68.3592,-77.81439l-0.1909,0.21729m33.9717,-38.67062l-33.7808,38.45333m-88.4944,78.00695l-20.7405,23.60926m45.9832,-52.34339l-7.8872,8.97815m93.3345,-106.24426l-36.1641,41.1662m-85.2906,74.36011l-18.1546,20.66559m45.2247,-51.47994l-1.266,1.44111m4.9223,-5.60315l-3.6563,4.16204m43.8198,-49.88085l-1.9665,2.23852m40.9472,-46.61093l-6.1599,7.0119m-116.4491,109.8282l-13.8416,15.75616m124.8652,-142.13615l-8.3082,9.45745m-107.3099,99.4249l-18.1208,20.62724m122.1547,-139.05075l-11.4905,13.07987m-105.783,97.68682l-14.0627,16.0078m119.7503,-136.31366l-3.7641,4.28478m-116.2188,109.56596l-9.1504,10.41609m44.4753,-50.62692l-1.3848,1.57621m42.1562,-47.98694l-3.7423,4.25979m36.0446,-41.03006l-4.0637,4.62575m-108.8802,101.21232l-14.2498,16.22089m23.5784,-26.83967l-9.3286,10.61878m13.3922,-15.24449l-4.0636,4.62571m92.0309,-104.76031l-24.2406,27.59349m-80.0423,68.38579l-21.13873,24.06253m113.83643,-129.58188l-17.2504,19.63641m-91.0698,80.93878l-15.40972,17.541m33.63802,-38.29067l-3.7247,4.24m36.559,-41.61584l-12.5381,14.27228m31.6999,-36.08449l-2.5438,2.89567m29.0547,-33.07344l-11.2711,12.83009m-100.32142,91.4698l-10.51407,11.96835m89.70699,-102.11491l-65.1541,74.16594m85.9684,-97.8593l-6.1307,6.97865m-107.76444,99.9424l-6.58735,7.49849m92.78139,-105.61464l-72.59638,82.63771m88.71318,-100.98369l-1.972,2.24472m-113.29093,106.23337l-3.55398,4.04555m47.73131,-54.33335l-30.88277,35.15439m77.88337,-88.65594l-27.2357,31.00282m-75.91101,63.68302l-1.41028,1.60535m53.43959,-60.83122l-38.85733,44.23199m44.35683,-50.49212l-5.4995,6.26013m42.1072,-47.93128l-36.6077,41.67115m-68.43532,55.17344l-0.14794,0.1684m94.90076,-108.02721l-81.5451,92.82423m-687.4582,-219.17521l-264.26253,264.26253" fill="none" stroke-width="6" stroke-linejoin="round" stroke-linecap="round" stroke="#44F"/>
 </symbol>
 <symbol viewBox="0 0 1300 2000" preserveAspectRatio="none" id="DQ6">
  <path id="svg_8" d="m1200,695c4.4115,6.18328 6.9487,12.69664 5,20m-0.6646,4.98234c4.4115,6.18328 6.9487,12.69664 5,20m6.8318,2.98097c4.4115,6.18328 6.9487,12.69664 5,20m-26.1672,-112.96331c1.0298,15.05623 40.2085,0.0599 35,-5m-680,-190c15.3233,-7.55931 30.58277,-14.28434 45,-10m-50,-175c-8.28172,10.54753 -23.95381,12.97919 -40,15m140,-10c16.67724,2.19986 19.87524,-1.84649 25,-5m-225,-45c25,0 48.60183,-42.3991 90,0m68.00603,3.10284c11.99397,-3.10284 44.49397,-50.60284 81.99397,-8.10284m-157.48444,4.23824c1.58324,3.94455 2.48442,8.48077 2.48442,13.30688c0,15.21274 -8.95431,27.54511 -20,27.54511c-11.04569,0 -20,-12.33237 -20,-27.54511c0,-4.51509 0.78877,-8.77645 2.18688,-12.53697m181.44877,-5.02789c0.88088,3.10532 1.36437,6.48477 1.36437,10.01974c0,15.21274 -8.95431,27.54511 -20,27.54511c-11.04569,0 -20,-12.33237 -20,-27.54511c0,-1.30414 0.0658,-2.5871 0.19309,-3.84295m138.9198,362.78685c16.8774,-3.38935 33.95469,-7.24736 51.24581,-11.59432m-222.42728,30.84537c14.44484,-0.31868 29.01838,-0.97612 43.7316,-1.98827m-127.55437,0.05866c14.07372,0.95839 28.25601,1.60536 42.55807,1.92461m-128.37031,-11.68901c14.1116,2.24365 28.31431,4.1914 42.62039,5.82532m-132.9183,-24.32691c15.54242,3.87955 31.16702,7.43166 46.89144,10.63061m-133.4899,-35.71154c13.96978,4.58099 27.98051,8.92908 42.04566,13.02466m470.23201,13.89762c16.28431,-3.21757 32.76049,-6.87567 49.44233,-10.99284m-217.34167,29.45681c14.05521,-0.28412 28.23425,-0.89302 42.54823,-1.84167m-124.50601,-0.16292c13.77471,0.95236 27.65376,1.60234 41.64868,1.93439m-126.31044,-11.65533c13.92527,2.22803 27.93746,4.16398 42.04952,5.79038m-130.79082,-24.0378c15.25621,3.81439 30.58657,7.30906 46.00933,10.45939m-131.67998,-35.29454c13.79064,4.52293 27.61465,8.8161 41.48611,12.86056m53.86303,-26.69013c-14.27835,-3.59446 -28.51118,-7.4848 -42.71929,-11.64993m124.80046,28.7992c-13.26383,-2.18511 -26.45674,-4.65029 -39.59455,-7.37951m120.08939,16.99593c-13.5364,-0.99615 -26.97135,-2.30105 -40.32041,-3.89892m114.84057,6.18072c-12.26614,0.15129 -24.43212,0.042 -36.50851,-0.3173m191.27719,-15.0768c-13.38623,2.46455 -26.6265,4.61882 -39.73172,6.47387m28.68694,-24.62968c12.72739,-2.26024 25.58958,-4.80872 38.5967,-7.6554m-186.68702,21.5904c11.71725,-0.0963 23.52704,-0.43703 35.43927,-1.0319m-106.20783,-1.35725c11.97911,0.90742 24.0383,1.56608 36.18912,1.96464m-114.63634,-11.51535c13.02212,2.17644 26.11198,4.07498 39.28558,5.67988m-118.02479,-22.27335c13.53775,3.42507 27.11477,6.57562 40.74994,9.43308m-120.88364,-32.87409c12.70446,4.19177 25.41058,8.17161 38.13425,11.92389m51.68281,-27.17498c-13.51922,-3.44451 -27.02347,-7.17991 -40.53876,-11.18718m112.76041,26.66373c-11.70261,-2.01647 -23.36032,-4.27142 -34.9895,-6.75286m109.11026,16.16233c-12.36015,-0.99942 -24.63579,-2.28018 -36.84499,-3.82908m92.96958,6.38141c-7.90822,-0.0798 -15.77287,-0.27716 -23.59835,-0.58895m165.43784,-10.35724c-11.19006,1.80777 -22.26213,3.38259 -33.22607,4.73167m82.61728,77.62904c15.69275,-3.04925 31.56916,-6.5117 47.64274,-10.40422m-212.26609,28.09046c13.66608,-0.2504 27.45106,-0.81178 41.36618,-1.69816m-121.4619,-0.37926c13.47529,0.94604 27.05068,1.59872 40.73802,1.94323m-124.26906,-11.62355c13.74425,2.21347 27.57128,4.13849 41.49474,5.758m-128.6577,-23.74648c14.97024,3.74912 30.00684,7.18621 45.12861,10.28774m-129.87673,-34.87845c13.61133,4.46483 27.2486,8.70308 40.92649,12.6964m48.65978,-7.44007c-14.40711,-3.62048 -28.76265,-7.53802 -43.08636,-11.73119m86.45401,21.67421c-14.52055,-3.00341 -28.96986,-6.32488 -43.36765,-9.94302m83.77373,17.42998c-13.53973,-2.21348 -27.00325,-4.71473 -40.40608,-7.48696m121.91437,17.12463c-13.72861,-0.99435 -27.35295,-2.3018 -40.88794,-3.90616m117.26531,6.12217c-12.5867,0.18106 -25.06945,0.0914 -37.45874,-0.25776m195.5436,-15.89858c-13.75529,2.58054 -27.36088,4.83699 -40.8276,6.78111m18.79433,-43.25147c12.11256,-2.10363 24.35117,-4.47109 36.7254,-7.11111m-181.45837,20.29134c11.32337,-0.0678 22.73446,-0.36692 34.24311,-0.90642m-103.13002,-1.53808c11.67738,0.89879 23.43081,1.55768 35.27202,1.96601m-112.71279,-11.49398c12.88334,2.17037 25.83029,4.06468 38.8578,5.66748m-115.89296,-21.97105c13.25171,3.35842 26.5356,6.44985 39.87093,9.25675m-119.08429,-32.44942c12.52598,4.13303 25.04623,8.05721 37.57723,11.75755m-47.52536,16.35559c-12.656,-4.15361 -25.30759,-8.51062 -37.96957,-13.05607m57.94701,-43.32963c-9.3097,-3.07228 -18.63548,-6.26486 -27.98576,-9.57156m4.66091,75.37674c-13.53447,-4.44109 -27.05683,-9.1119 -40.58389,-13.99418m60.56607,-42.38543c-9.65104,-3.18472 -19.31459,-6.49692 -28.9994,-9.92973m106.36688,32.62387c-13.64864,-3.47116 -27.27548,-7.23427 -40.90527,-11.26991m114.70485,27.01859c-11.94034,-2.04205 -23.83114,-4.32854 -35.68841,-6.8469m110.94188,16.30005c-12.5562,-0.99843 -25.02485,-2.28275 -37.42335,-3.83931m102.56101,6.38524c-10.64217,0.0142 -21.20462,-0.18194 -31.6971,-0.58063m134.81445,94.13696c14.72213,-1.60024 29.58856,-3.55723 44.60975,-5.8862m-48.32875,-3.7309c14.50482,-1.54131 29.1532,-3.43288 43.95613,-5.68953m-58.86177,-32.83058c-12.03465,1.15413 -23.96068,2.05533 -35.7871,2.71273m28.39248,-21.83511c13.16818,-1.19487 26.46866,-2.70087 39.91416,-4.53051m-54.90196,-34.21109c-11.30713,0.88764 -22.50671,1.53375 -33.61029,1.94679m67.17516,84.81679c14.29078,-1.48294 28.72432,-3.30984 43.31218,-5.49514m-50.76413,-13.76674c-12.17183,1.20005 -24.2351,2.14454 -36.19835,2.84274m21.33112,-41.27651c12.93861,-1.13602 26.00821,-2.57617 39.22204,-4.3325m-46.71619,-15.03874c-11.44006,0.93456 -22.77257,1.62517 -34.00852,2.08043m106.18107,-11.03828c-11.5551,1.91422 -22.98813,3.58294 -34.30905,5.01397m133.61592,24.86075c-9.88172,2.54285 -19.68039,4.91985 -29.39989,7.13493m-28.59921,-55.01998c-5.24149,1.11863 -10.45582,2.1871 -15.64389,3.20609m83.31605,52.48872c-10.71072,2.83073 -21.32687,5.46856 -31.85297,7.91839m-25.90335,-55.53716c-6.10737,1.35386 -12.17896,2.64041 -18.2161,3.8607m-552.19941,44.86784c4.74975,1.49675 9.50476,2.9659 14.26557,4.40666m-6.6179,-12.48087c3.22526,1.00427 6.45269,1.99555 9.68248,2.97361m-2.67268,-11.25782c1.91132,0.58894 3.82332,1.17323 5.73603,1.75282m-220.55902,164.35438c54.87946,-78.09977 109.76034,-156.19855 164.64076,-234.29765m-164.64068,199.51062c48.33281,-68.78224 96.66621,-137.56405 144.9994,-206.34603m-144.99942,171.55897c41.86925,-59.58416 83.73944,-119.16765 125.60923,-178.75142m696.01304,-37.81358c10.74963,42.96206 18.64104,91.65732 23.21247,148.62876m-32.09118,-28.44695l-3.92969,-29.74023c-5.16298,-39.08508 -12.28322,-73.74277 -21.14881,-105.16932m104.84691,202.68489l-0.81724,-13.95503c-3.35388,-57.2471 -9.98798,-107.30414 -19.37404,-151.9985m-33.66288,-14.63378c10.5127,44.62034 18.07679,95.13468 22.16781,153.98272m-64.918,-54.077l-1.96484,-14.87109c-5.74871,-43.51919 -13.86698,-81.21289 -24.11716,-114.95765m-36.63116,-15.90376c12.1347,34.0143 21.74037,72.39113 28.67174,118.27174m42.52514,-87.35466c10.97508,41.17075 19.186,87.85869 24.23713,142.69571" fill="none" stroke-width="3" stroke-linejoin="round" stroke-linecap="round" stroke="#44F"/>
  <use id="svg_9" x="0" y="0" stroke-linecap="round" stroke-linejoin="round" stroke-width="72" stroke="#44F" transform="matrix(1, 0, 0, 0.972, 600, 951.4)" width="100" height="100" xlink:href="#D"/>
  <use id="svg_10" x="0" y="0" stroke-linecap="round" stroke-linejoin="round" stroke-width="72" stroke="#44F" transform="matrix(1, 0, 0, 0.972, 530, 956.4)" width="100" height="100" xlink:href="#D"/>
  <use id="svg_11" x="0" y="0" stroke-linecap="round" stroke-linejoin="round" stroke-width="72" stroke="#44F" transform="matrix(1, 0, 0, 0.972, 460, 961.4)" width="100" height="100" xlink:href="#D"/>
 </symbol>
 <g>
  <title>Layer 1</title>
  <g id="svg_33">
   <use transform="matrix(1.45697, 0, 0, 1.28737, -2.16581, -2.71406)" id="svg_13" xlink:href="#DQ1" y="2.1762" x="1.45505" height="260.8" width="164.8"/>
   <use id="svg_14" xlink:href="#DQ1" y="2.1762" x="1.45505" height="260.8" width="164.8" transform="matrix(-1.45697, 0, 0, -1.28737, 242.184, 338.636)"/>
   <use transform="matrix(1.45697, 0, 0, 1.28737, -2.16581, -2.71406)" id="svg_15" xlink:href="#DQ2" y="2.1762" x="1.45505" height="260.8" width="164.8"/>
   <use id="svg_16" xlink:href="#DQ2" y="2.1762" x="1.45505" height="260.8" width="164.8" transform="matrix(-1.45697, 0, 0, -1.28737, 242.184, 338.636)"/>
   <use transform="matrix(1.45697, 0, 0, 1.28737, -2.16581, -2.71406)" id="svg_17" xlink:href="#DQ3" y="2.1762" x="1.45505" height="260.8" width="164.8"/>
   <use id="svg_18" xlink:href="#DQ3" y="2.1762" x="1.45505" height="260.8" width="164.8" transform="matrix(-1.45697, 0, 0, -1.28737, 242.184, 338.636)"/>
   <use transform="matrix(1.45697, 0, 0, 1.28737, -2.16581, -2.71406)" id="svg_19" xlink:href="#DQ4" y="2.1762" x="1.45505" height="260.8" width="164.8"/>
   <use id="svg_20" xlink:href="#DQ4" y="2.1762" x="1.45505" height="260.8" width="164.8" transform="matrix(-1.45697, 0, 0, -1.28737, 242.184, 338.636)"/>
   <use transform="matrix(1.45697, 0, 0, 1.28737, -2.16581, -2.71406)" id="svg_21" xlink:href="#DQ5" y="2.1762" x="1.45505" height="260.8" width="164.8"/>
   <use id="svg_22" xlink:href="#DQ5" y="2.1762" x="1.45505" height="260.8" width="164.8" transform="matrix(-1.45697, 0, 0, -1.28737, 242.184, 338.636)"/>
   <use transform="matrix(1.45697, 0, 0, 1.28737, -2.16581, -2.71406)" id="svg_23" xlink:href="#DQ6" y="2.1762" x="1.45505" height="260.8" width="164.8"/>
   <use id="svg_24" xlink:href="#DQ6" y="2.1762" x="1.45505" height="260.8" width="164.8" transform="matrix(-1.45697, 0, 0, -1.28737, 242.184, 338.636)"/>
  </g>
 </g>
</svg>